<?xml version="1.0" standalone="no"?>
<!DOCTYPE svg PUBLIC "-//W3C//DTD SVG 1.1//EN" "http://www.w3.org/Graphics/SVG/1.1/DTD/svg11.dtd" >
<svg xmlns="http://www.w3.org/2000/svg">
<metadata>Generated by IcoMoon</metadata>
<defs>
<font id="Wordand" horiz-adv-x="1024">
<font-face units-per-em="1024" ascent="960" descent="-64" />
<missing-glyph horiz-adv-x="1024" />
<glyph unicode="&#x20;" horiz-adv-x="0" d="" />
<glyph unicode="&#xe000;" glyph-name="parking" d="M1024 832c0 72-56 128-128 128h-768c-72 0-128-56-128-128v-768c0-72 56-128 128-128h768c72 0 128 56 128 128zM938 64c0-26-16-42-42-42h-768c-26 0-42 16-42 42v768c0 26 16 42 42 42h768c26 0 42-16 42-42zM618 746h-362v-596h86v212h276c108 0 192 86 192 192 0 108-84 192-192 192zM618 448h-276v214h276c60 0 108-48 108-108s-48-106-108-106z" />
<glyph unicode="&#xe001;" glyph-name="clipboard" d="M28 970h-6c0-4-2-6-6-6-6 0-8 4-8 10 0 8 2 12 8 12 4 0 6-2 6-6h6c0 6-6 10-12 10-8 0-14-6-14-16 0-8 6-14 14-14 6 0 12 4 12 10zM16 976v6c-2 0-2 0-2 0-2 0-4-2-6-4v4h-6v-22h6v12c0 4 2 4 6 4 0 0 0 0 2 0zM22 970c0 8-4 12-10 12-8 0-12-4-12-12 0-6 4-10 12-10 4 0 8 2 10 6h-6c0-2-2-2-4-2-4 0-6 2-6 6h16zM16 974h-10c2 2 2 4 6 4 2 0 4-2 4-4zM22 960v0c-2 2-2 2-2 4v12c0 4-2 6-8 6s-10-2-10-8h6c0 4 0 4 4 4 2 0 2 0 2-2s-2-2-4-2l-2-2c-4 0-6-2-6-6s2-6 6-6c2 0 4 0 6 2 0 0 0-2 2-2zM14 970c0-4-2-6-4-6s-4 2-4 2c0 2 2 2 4 4h2c2 0 2 0 2 0zM12 960v4c0 0 0 0 0 0-2 0-2 0-2 2v12h2v4h-2v6h-6v-6h-4v-4h4v-14c0-2 2-4 6-4 0 0 2 0 2 0zM22 960v30h-6v-10c0 2-2 2-6 2s-8-4-8-10c0-8 2-12 8-12 4 0 6 0 6 2v-2zM16 970c0-4-2-6-4-6-4 0-6 2-6 8 0 4 2 6 6 6 2 0 4-2 4-8zM24 970c0 8-4 12-10 12-2 0-4 0-6-2v10h-6v-30h6v2c2-2 4-2 6-2 6 0 10 4 10 10zM18 972c0-4-2-8-4-8-4 0-6 2-6 8 0 4 2 6 6 6 2 0 4-2 4-6zM22 982h-6l-4-16-6 16h-6l8-22v-2c0-2 0-2-2-2s-2 0-2 0v-4c0 0 0 0 2 0 4 0 6 0 6 4zM8 960v30h-6v-30zM8 960v30h-6v-30zM22 966v0c0 4-2 6-6 6l-6 2c-2 0-2 2-2 2 0 2 2 2 4 2s4 0 4-2h4c0 4-2 6-8 6s-10-2-10-6c0-4 0-6 4-6l8-2c2 0 2-2 2-2 0-2-2-2-4-2-4 0-4 0-6 4h-4c0-6 2-8 10-8 6 0 10 2 10 6zM22 960v22h-6v-14c0-2-2-4-4-4s-4 2-4 4v14h-6v-14c0-6 4-8 8-8 2 0 4 0 6 2v-2zM28 960l-10 30h-6l-10-30h6l2 6h10l2-6zM18 972h-6l2 10zM24 972c0 6-4 10-10 10-2 0-4 0-6-4v4h-6v-30h6v10c2-2 4-2 6-2 6 0 10 4 10 12zM18 970c0-4-2-6-6-6-2 0-4 2-4 8 0 4 2 6 4 6 4 0 6-2 6-8zM22 960l-8 14 8 8h-6l-8-8v16h-6v-30h6v8l2 2 6-10zM24 970c0 8-4 12-12 12-6 0-10-4-10-10 0-8 4-12 10-12 8 0 12 4 12 10zM18 970c0-4-2-6-6-6-2 0-4 2-4 8 0 4 2 6 4 6 4 0 6-2 6-8zM22 982h-6l-4-16-6 16h-6l8-22h6zM12 978v4h-2v2c0 2 0 2 0 2 2 0 2 0 2 0v4c0 0-2 0-2 0-4 0-6-2-6-6v-2h-4v-4h4v-18h6v18zM34 960v16c0 4-2 6-8 6-2 0-4 0-6-2 0 2-4 2-6 2s-4 0-6-2v2h-6v-22h6v14c0 2 2 4 4 4s4-2 4-4v-14h4v14c0 2 2 4 4 4s4-2 4-4v-14zM22 960v14c0 6-2 8-8 8-2 0-4 0-6-4v12h-6v-30h6v14c0 2 2 4 4 4s4-2 4-4v-14zM28 960v30h-8v-20l-10 20h-8v-30h6v20l12-20zM22 960v14c0 6-2 8-8 8-2 0-4 0-6-4v4h-6v-22h6v14c0 2 2 4 4 4 4 0 4-2 4-4v-14zM26 980c0 6-4 10-10 10h-12v-30h6v10h6c6 0 10 4 10 10zM20 980c0-2-2-4-4-4h-6v8h6c2 0 4 0 4-4zM8 956v26h-6v-24c0-2 0-2 0-2-2 0-2 0-2 0v-4c2 0 2 0 4 0 4 0 4 0 4 4zM8 984v6h-6v-6zM22 968h-6c0-2-2-4-4-4-4 0-4 2-4 6s0 8 4 8c2 0 4-2 4-4h6c-2 6-4 8-10 8s-10-4-10-12c0-6 4-10 10-10s8 2 10 8zM758 862h-98c0 22-18 40-42 40h-212c-24 0-42-18-42-40h-98c-26 0-48-22-48-50v-548c0-28 22-50 48-50h492c26 0 48 22 48 50v156l-48-50v-106h-492v548h98c0-22 18-40 42-40h212c24 0 42 18 42 40h98v-138l48 48v90c0 28-22 50-48 50zM610 820h-196v34h196zM594 362l28 2-26 24zM864 558l-18 18-188-188-10 10 188 188-18 18-188-188-12 10 188 188-18 18-188-188-2-38 44-40 34 4zM874 602c-18 18-22 22-40 40s-38-2-38-2l76-74c0 0 18 18 2 36zM368 686c2 2 8 2 10 0l16-12c10-10 28-10 40 0l16 12c2 2 8 2 10 0l16-12c10-10 28-10 40 0l16 12c2 2 8 2 10 0l16-12c10-10 28-10 40 0l16 12c2 2 6 2 8 0l10-10c10-10 28-12 40-2l28 22-16 20-28-22c-2-2-6-2-8 0l-10 10c-10 10-28 12-40 2l-16-12c-2-2-8-2-10 0l-14 12c-12 8-30 8-42 0l-16-12c-2-2-6-2-10 0l-14 12c-12 8-30 8-42 0l-16-12c-2-2-6-2-10 0l-14 12c-12 8-30 8-42 0l-28-24 16-18zM684 634l-28-22c-2-2-6-2-8 0l-10 10c-10 10-28 12-40 2l-16-12c-2-2-8-2-10 0l-14 12c-12 8-30 8-42 0l-16-12c-2-2-6-2-10 0l-14 12c-12 8-30 8-42 0l-16-12c-2-2-6-2-10 0l-14 12c-12 8-30 8-42 0l-28-24 16-18 28 22c2 2 8 2 10 0l16-12c10-10 28-10 40 0l16 12c2 2 8 2 10 0l16-12c10-10 28-10 40 0l16 12c2 2 8 2 10 0l16-12c10-10 28-10 40 0l16 12c2 2 6 2 8 0l8-10c12-10 30-12 42-2l24 18 4 6zM598 542l-16-12c-2-2-8-2-10 0l-14 12c-12 8-30 8-42 0l-16-12c-2-2-6-2-10 0l-14 12c-12 8-30 8-42 0l-16-12c-2-2-6-2-10 0l-14 12c-12 8-30 8-42 0l-28-22 16-20 28 22c2 2 8 2 10 0l16-12c10-10 28-10 40 0l16 12c2 2 8 2 10 0l16-12c10-10 28-10 40 0l16 12c2 2 8 2 10 0l16-12c8-8 22-8 32-4l40 40c-10 4-22 2-32-4zM558 460c-12 8-30 8-42 0l-16-12c-2-2-6-2-10 0l-14 12c-12 8-30 8-42 0l-16-12c-2-2-6-2-10 0l-14 12c-12 8-30 8-42 0l-28-22 16-20 28 22c2 2 8 2 10 0l16-12c10-10 28-10 40 0l16 12c2 2 8 2 10 0l16-12c10-10 28-10 40 0l16 12c2 2 8 2 10 0l16-12c0 0 2-2 4-2v30zM558 378c-12 8-30 8-42 0l-16-12c-2-2-6-2-10 0l-14 12c-12 8-30 8-42 0l-16-12c-2-2-6-2-10 0l-14 12c-12 8-30 8-42 0l-28-22 16-20 28 22c2 2 8 2 10 0l16-12c10-8 28-8 40 0l16 12c2 2 8 2 10 0l16-12c10-8 28-8 40 0l16 12c2 2 8 2 10 0l16-12c0 0 2-2 4-2v30z" />
<glyph unicode="&#xe002;" glyph-name="lawyer" d="M1020 532v2l-4 6-170 324c-4 8-20 32-50 32h-570c-34 0-52-34-52-34l-168-318v-2c-4-6-10-20-4-36 42-68 118-114 206-114 84 0 158 44 202 110 6 14-4 34-4 34l-158 300v4c-4 4-6 14 12 14h206c6 0 24-4 24-30v-714c-2-6-4-20-18-30l-104-64c0 0-28-16 0-16h294c20 0 0 14 0 14l-106 64c0 0 0 0 0 0-18 12-22 24-22 32v716c0 24 18 28 24 28h202c6 0 22-2 12-22l-160-302c0 0-4-12 2-24 42-68 118-114 204-114s162 46 204 114c4 12 0 24-2 26zM356 542v0l2-4c2-6 8-20-2-20h-302c-10 0-8 10-4 16l4 10 144 272c0 0 8 12 12 0h2zM666 540l2 4c0 0 0 0 0 0l140 266c0 0 10 18 20 0l138-266c4-6 12-26-8-26h-280c0 0 0 0 0 0-20 0-16 14-12 22z" />
<glyph unicode="&#xe003;" glyph-name="legal-documents" d="M198 766h72v-32h-72zM588 198c2-2 4-2 4-2 2 0 2 0 2 0 2 0 2-2 4-2s2 0 2 0c2 0 2 0 4 0 0 0 2 0 2 0 2 0 4-2 4-2 2 0 2 0 2 0 2 0 2 0 4 0 0 0 2 0 2 0 2 0 4 0 6 0s4 0 4 0 2 0 2 0c2 0 4 0 6 0 0 0 0 0 0 0 2 0 4 2 6 2 0 0 0 0 0 0 2 0 4 0 4 0 2 0 2 0 2 0 2 0 4 2 6 2 0 0 0 0 0 0 2 0 4 0 4 2 2 0 2 0 2 0 48 14 84 60 84 114 0 66-54 120-120 120-68 0-122-54-122-120 0-54 36-100 86-114 0 0 0 0 0 0zM552 312c0 38 32 70 72 70 38 0 70-32 70-70s-32-70-70-70c-40 0-72 32-72 70zM652 176c-2 0-4 0-6 0-2-2-2-2-2-2-2 0-4 0-6 0 0 0 0 0-2 0s-4 0-6 0c0 0 0 0 0 0-2 0-4 0-6 0s-6 0-8 0c0 0 0 0 0 0-2 0-4 0-6 0 0 0 0 0-2 0s-4 0-6 0c0 0 0 0 0 2-2 0-4 0-6 0 0 0 0 0-2 0s-4 2-6 2c0 0 0 0 0 0-8 2-16 4-24 8v-148l54 74c2 2 4 4 8 4 2 0 6-2 8-4l50-72v146c-10-4-22-8-32-10 0 0 0 0 0 0zM236 158l30 74h-62zM676 312c0 28-24 52-52 52-30 0-52-24-52-52s22-52 52-52c28 0 52 24 52 52zM796 844v-76h78zM788 750c-6 0-10 4-10 8v100h-418v-696h184v36c-36 24-60 66-60 114 0 76 62 138 140 138 76 0 138-62 138-138 0-48-24-90-60-114v-36h184v588zM408 768h216c4 0 10-4 10-10 0-4-6-8-10-8h-216c-4 0-10 4-10 8 0 6 6 10 10 10zM838 554h-430c-4 0-10 6-10 10 0 6 6 10 10 10h430c6 0 10-4 10-10 0-4-4-10-10-10zM838 620h-430c-4 0-10 4-10 10 0 4 6 8 10 8h430c6 0 10-4 10-8 0-6-4-10-10-10zM838 684h-430c-4 0-10 4-10 10s6 10 10 10h430c6 0 10-4 10-10s-4-10-10-10zM198 662h-52c-4 0-8-4-8-10v-168c0-6 4-10 8-10 6 0 10 4 10 10v160h42v-392h72v464h-72zM234 858c-20 0-36-16-36-36v-36h72v36c0 20-16 36-36 36z" />
<glyph unicode="&#xe004;" glyph-name="for-sale-1" d="M810 794h-240c0 30-26 56-58 56s-58-26-58-56h-240c-20 0-38-18-38-38 0-22 18-38 38-38h38v-460c0-6 4-12 10-14l192-54v-130c0-8 6-14 14-14s14 6 14 14v124l26-8c2 0 6 0 8 0l26 8v-124c0-8 6-14 14-14s14 6 14 14v130l192 54c6 2 10 8 10 14v460h38c20 0 38 16 38 38 0 20-18 38-38 38zM512 822c16 0 30-12 30-28h-60c0 16 14 28 30 28zM214 746c-4 0-10 4-10 10 0 4 6 10 10 10h38v-20zM744 268l-232-64-232 64v498h464zM810 746h-38v20h38c4 0 10-6 10-10 0-6-6-10-10-10zM660 570l-142 76c-4 2-10 2-14 0l-140-76c-4-2-8-6-8-10 0-6 2-10 6-14 4-2 10-2 14 0l10 6v-152c0-8 8-14 14-14h74c4 0 8 0 10 4 2 2 4 6 4 10v64h48v-64c0-8 6-14 14-14h72c8 0 14 6 14 14v152l12-6c6-4 14 0 18 6s2 16-6 18zM608 414h-44v64c0 8-6 14-14 14h-76c-8 0-14-6-14-14v-64h-46v152l98 52 96-52z" />
<glyph unicode="&#xe005;" glyph-name="heart" d="M512 10c-10 0-18 2-26 10l-356 344c-4 2-8 8-16 14-6 8-16 20-32 38-14 18-26 36-38 56-12 18-22 42-30 68-10 28-14 54-14 80 0 84 24 148 72 196s116 70 202 70c22 0 46-4 72-12 24-8 46-18 68-32s40-28 54-40c16-12 30-24 44-38 14 14 28 26 44 38 14 12 32 26 54 40s44 24 68 32c26 8 50 12 72 12 86 0 154-22 202-70s72-112 72-196c0-84-44-170-130-258l-356-342c-8-8-16-10-26-10z" />
<glyph unicode="&#xe006;" glyph-name="share" d="M1024 448l-468 512v-306h-54c-134 0-260-52-354-148-96-94-148-222-148-356v-214l90 98c120 132 290 208 466 210v-308zM60 90v60c0 118 46 230 130 314s194 130 312 130h114v212l326-358-326-356v212h-52c-190 0-372-78-504-214z" />
<glyph unicode="&#xe007;" glyph-name="close" d="M558 448l264 262c12 12 12 32 0 46-12 12-32 12-46 0l-262-262-266 264c-14 14-34 14-46 0-12-12-12-32 0-44l266-266-268-266c-12-12-12-32 0-46 14-12 34-12 46 0l266 266 266-264c12-14 32-14 46 0 12 12 12 32 0 44z" />
<glyph unicode="&#xe008;" glyph-name="heart-outline" d="M950 620c0 30-4 58-12 82-8 22-18 42-30 56-14 14-30 24-48 34-18 8-36 14-54 18-16 2-36 4-56 4-18 0-40-6-64-14-22-10-44-22-62-38-20-14-36-28-50-40-14-14-24-26-34-36-6-8-16-12-28-12s-22 4-28 12c-10 10-20 22-34 36-14 12-30 26-50 40-18 16-40 28-62 38-24 8-46 14-64 14-20 0-40-2-56-4-18-4-36-10-54-18-18-10-34-20-48-34-12-14-22-34-30-56-8-24-12-52-12-82 0-64 34-132 106-204l332-320 332 320c72 72 106 140 106 204zM1024 620c0-84-44-170-130-258l-356-342c-8-8-16-10-26-10s-18 2-26 10l-356 344c-4 2-8 8-16 14-6 8-16 20-32 38-14 18-26 36-38 56-12 18-22 42-30 68-10 28-14 54-14 80 0 84 24 148 72 196s116 70 202 70c22 0 46-4 72-12 24-8 46-18 68-32s40-28 54-40c16-12 30-24 44-38 14 14 28 26 44 38 14 12 32 26 54 40s44 24 68 32c26 8 50 12 72 12 86 0 154-22 202-70s72-112 72-196z" />
<glyph unicode="&#xe009;" glyph-name="facebook" d="M768 750c0 0-146 0-146 0-8 0-18-6-26-16-6-10-10-24-10-38 0 0 0-104 0-104s182 0 182 0c0 0 0-152 0-152s-182 0-182 0c0 0 0-452 0-452s-174 0-174 0c0 0 0 452 0 452s-156 0-156 0c0 0 0 152 0 152s156 0 156 0c0 0 0 88 0 88 0 64 20 118 60 162s90 66 150 66c0 0 146 0 146 0s0-158 0-158" />
<glyph unicode="&#xe00a;" glyph-name="facebook-1" d="M960-64h-896c-36 0-64 28-64 64v896c0 36 28 64 64 64h896c36 0 64-28 64-64v-896c0-36-28-64-64-64zM896 832h-768v-768h768zM512 576c0 70 58 128 118 128h74v-128h-64v-64h64v-128h-64v-192h-128v192h-64v128h64z" />
<glyph unicode="&#xe00b;" glyph-name="twitter" d="M984 740c-26-36-58-70-98-100 0 0 0-24 0-24 0-88-20-174-60-256-42-82-106-152-192-208s-184-84-296-84c-110 0-208 28-298 86 10-2 26-2 48-2 90 0 170 26 240 80-42 2-80 16-112 40-34 24-56 56-68 96 6-2 18-4 34-4 18 0 36 2 52 6-46 10-82 32-112 68-28 36-42 76-42 122 0 0 0 2 0 2 24-12 54-22 86-24-58 40-86 94-86 162 0 32 8 64 26 96 106-128 238-196 400-200-4 12-6 26-6 42 0 54 18 100 56 136 38 38 84 56 138 56 56 0 102-18 140-58 40 8 82 22 122 44-14-44-42-80-84-106 38 6 76 16 112 30" />
<glyph unicode="&#xe00d;" glyph-name="pinterest" d="M444 284c-18-88-38-160-58-216-22-56-56-100-100-132-4 50-6 92-6 122-2 32 2 70 10 114 10 44 16 78 24 106 6 28 16 62 26 102s20 74 24 100c-16 36-22 76-18 120 2 44 18 80 48 108s64 36 102 20c26-10 42-30 44-60 4-30-2-62-12-98-12-34-24-70-34-104-10-36-12-66-4-92 8-28 30-44 66-50 46-10 86 2 122 38 38 36 62 80 76 134 16 54 18 110 12 168-6 56-26 100-56 130-42 44-94 68-154 72s-116-8-166-34c-52-26-92-66-124-120s-42-112-32-174c2-14 10-32 22-54 12-20 20-36 22-48 2-10-4-34-18-68-100 24-148 102-144 236 4 94 40 174 108 240 70 64 148 104 238 114 112 12 212-8 298-58 86-52 134-126 148-224 18-120-6-230-68-326-64-96-150-140-258-132-16 2-30 6-44 10s-24 10-30 14c-6 4-18 10-32 20s-24 18-32 22" />
<glyph unicode="&#xe00e;" glyph-name="whatsapp" d="M972 456c0-248-202-450-452-450-78 0-154 22-218 56l-250-78 80 240c-40 68-64 146-64 232 0 248 202 448 452 448s452-200 452-448zM520 834c-210 0-380-170-380-378 0-82 26-160 72-222l-48-140 148 46c60-38 132-62 208-62 210 0 380 170 380 378s-170 378-380 378zM748 352c-2 4-10 8-20 14-12 4-66 32-76 34-10 4-18 6-26-4-6-12-28-36-34-44s-14-8-24-2c-12 6-48 16-90 54-32 30-54 66-62 76-6 12 0 18 6 22 4 6 10 14 16 20s8 12 12 18c4 8 2 14-2 20-2 6-24 60-34 82-8 22-18 18-24 18-8 0-14 0-22 0s-20-2-30-14c-10-10-38-36-38-90 0-56 40-108 44-114 6-8 78-122 190-166 114-44 114-30 134-28s66 26 74 52c10 26 10 48 6 52z" />
<glyph unicode="&#xe00f;" glyph-name="eye" d="M512 734c62 0 124-8 182-24 58-18 106-40 144-64 38-26 72-52 102-80 28-26 50-50 64-72s20-36 20-46c0-10-6-24-20-46-14-20-36-44-64-72-30-28-64-54-102-80-38-24-86-46-144-64-58-16-120-24-182-24s-124 8-182 24c-58 18-106 40-144 64-38 26-72 52-102 80-28 28-50 52-64 72-14 22-20 36-20 46s6 24 20 46c14 22 36 46 64 72 30 28 64 54 102 80 38 24 86 46 144 64 58 16 120 24 182 24M512 228c62 0 116 22 160 66 46 42 68 94 68 154 0 62-22 114-68 156-44 44-98 66-160 66s-116-22-160-66c-46-42-68-94-68-156 0-60 22-112 68-154 44-44 98-66 160-66M512 448c6-6 18-6 38-2s36 8 52 12c14 2 22 0 24-10 0-30-10-56-34-76-22-22-48-32-80-32s-58 10-80 32c-22 20-32 46-32 76 0 32 10 58 32 78 22 22 48 32 80 32 10 0 12-8 10-22-2-16-6-32-12-50-6-16-4-28 2-38" />
<glyph unicode="&#xe010;" glyph-name="thermometer" d="M640 412v420c0 70-58 128-128 128s-128-58-128-128v-420c-76-44-128-126-128-220 0-142 114-256 256-256s256 114 256 256c0 94-52 176-128 220M448 576h64v64h-64v64h64v64h-64v64c0 36 28 64 64 64s64-28 64-64v-320h-128zM512 0c-106 0-192 86-192 192 0 10 2 22 4 32 14-90 94-160 188-160 96 0 174 70 188 160 2-10 4-22 4-32 0-106-86-192-192-192" />
<glyph unicode="&#xe011;" glyph-name="calendar" d="M938 864h-138v64c0 18-14 32-32 32s-32-14-32-32v-64h-192v64c0 18-14 32-32 32s-32-14-32-32v-64h-192v64c0 18-14 32-32 32s-32-14-32-32v-64h-138c-48 0-86-38-86-86v-756c0-48 38-86 86-86h852c48 0 86 38 86 86v756c0 48-38 86-86 86zM960 22c0-12-10-22-22-22h-852c-12 0-22 10-22 22v756c0 12 10 22 22 22h138v-64c0-18 14-32 32-32s32 14 32 32v64h192v-64c0-18 14-32 32-32s32 14 32 32v64h192v-64c0-18 14-32 32-32s32 14 32 32v64h138c12 0 22-10 22-22zM224 576h128v-96h-128zM224 416h128v-96h-128zM224 256h128v-96h-128zM448 256h128v-96h-128zM448 416h128v-96h-128zM448 576h128v-96h-128zM672 256h128v-96h-128zM672 416h128v-96h-128zM672 576h128v-96h-128z" />
<glyph unicode="&#xe012;" glyph-name="tree-1" d="M704 228c-2 8-4 16-6 24-8-12-20-22-40-30-14-4-26-8-38-8-4 0-8 2-12 2l12-2-2-12c6-6 8-12 8-18 0-2 0-6-2-8s-6-4-10-4l-2-10zM594 326c12-10 24-20 36-34-2 8-2 16-2 22 0 8 0 16 2 22-10 2-18 4-28 8-2-6-4-12-8-18zM590 178c-12 4-26 12-40 22l-40-94 10-106 62 138zM504-32h-2v-2zM496 134l32 80c-12 8-24 20-32 36-4-18-18-36-38-52zM494-4l-10 108-48 84c-6-2-10-4-14-4-12-4-22-8-34-12l68-30zM336 196c10 10 26 20 46 28-18 12-32 24-38 38-2-24-8-44-20-60zM398 286c-6 0-12-2-16-2-14 0-28 4-44 12 2-6 4-10 4-16 2 4 8 6 14 6s16-2 28-8c12-4 22-10 34-16-4 8-8 16-12 24zM342 354c0-2-2-6-2-10 4-4 8-8 10-12-2 6-4 14-8 22zM446 290v0c2-16 2-32 2-48 6 22 14 34 22 42-8 2-16 4-24 6zM480 454c-4 2-6 4-10 8 4-10 6-16 8-24 0 6 0 10 2 16zM510 416c-8-14-18-26-30-36 2-8 4-16 4-22 10 18 20 34 30 46-2 4-4 8-4 12zM536 296c-4-2-6-4-10-6 2-6 2-12 2-18 2 8 4 14 8 24zM540 370c-12-16-30-32-50-50 8 4 16 6 26 8 4 0 10 0 12 0 10 0 16-2 16-8 8 16 14 28 20 36-8 4-16 8-24 14zM560 458c-8-4-16-6-24-8 8-8 14-22 22-42 0 16 0 32 2 50zM570 290c0 0-2-2-2-2s0 0 0-2l4-2c-2 2-2 4-2 6zM666 308c-4-16-8-32-14-46 12 16 24 26 34 30-8 6-14 10-20 16zM274 298c12-12 22-24 30-38-4 16-8 28-8 38 0 2 2 6 2 8-8-4-16-6-24-8zM742 278c-2-6-4-12-6-16 4 4 10 12 16 18-4 0-8-2-10-2zM724 198c-4 2-6 6-8 8l-112-80-86-186-32-4-50 188-128 56c-22-32-38-48-50-48-2 0-6 2-8 4-4 2-6 8-6 14 0 8 2 16 6 26s8 20 14 28c-4 0-8 0-12 0-8 0-14 0-20 2-22 2-34 10-34 20v2c0 8 12 16 34 22 12 4 24 6 36 8-24 10-40 22-52 36h-4c-34 0-52 6-52 16v2c0 10 10 18 30 24 10 4 22 6 32 8-8 8-14 16-20 26s-10 20-10 26c0 6 2 10 6 12 2 2 4 4 6 4 8 0 18-6 32-16 12-6 20-14 28-22-2 14-4 28-4 42v4c0 26 8 40 22 40v0c14 0 20-14 20-38 0-6 0-12-2-20 0-18-4-36-10-56 6 8 12 16 18 22 8 10 16 14 20 14s6 0 8-2c-4 16-6 28-6 38 0 16 4 26 14 28 2 0 4 0 4 0 18 0 26-20 26-60v-8h4c2 0 6 0 8-2 12 14 22 22 30 26-34 12-50 26-50 38 0 2 0 4 0 6 2 6 10 10 26 10 4 0 8 0 14-2 12 0 24-2 36-6-10 12-18 24-26 36s-12 24-12 32c0 8 4 12 10 16 2 2 6 2 8 2 12 0 26-16 38-48 2 6 8 8 18 8 4 0 8 0 12 0 10-2 18-4 26-8-14 12-28 26-40 40-18 18-26 32-26 44 0 4 2 8 4 12 4 2 8 4 12 4 10 0 20-8 34-24 8-12 14-26 22-38 2 12 4 22 8 34 6 22 14 34 22 34h2c10-2 16-12 20-34 0-6 0-12 0-18 0-4 0-10 0-14 8 4 18 8 28 12s18 6 24 6c8 0 14-2 18-8 0 0 2-2 2-6 0-10-14-24-38-42 0-16-8-36-20-60 12 6 22 12 34 16s22 8 28 8c8 0 12-2 14-6 0-2 2-6 2-8 0-8-6-18-20-30 10-8 22-18 32-32 2 12 6 22 12 32 8 16 18 24 26 24 2 0 2 0 4 0 8-2 12-10 12-28 0-4 0-8-2-12 0-12-2-24-4-36 10 10 22 20 34 28 14 8 24 12 32 12s14-4 16-10c2-2 4-4 4-6 0-12-14-24-42-38-16-10-34-16-52-22 8 0 18 0 26-2 18-4 26-8 26-16 0 0 0-2-2-2 22 22 38 32 50 32 4 0 8-2 12-6 4-2 4-6 4-12 0-8-8-20-24-32-10-8-22-16-36-24 12 0 24-4 36-6 22-6 34-14 34-22v-2c0-10-12-18-34-20-8-2-16-2-24-2h-8c6-8 10-18 14-28s6-20 6-26c0-6-2-12-6-14-2-2-4-4-6-4-10 0-22 10-36 28-10 10-18 22-26 36z" />
<glyph unicode="&#xe013;" glyph-name="tree-2" d="M816 502c2 2 6 4 10 8-2 2-2 2-2 4-2-4-6-8-8-12zM708 436c8 14 18 26 32 34-20 2-38 12-52 28-2 2-4 4-8 6-6-4-16-8-28-10 26-10 40-26 44-46 6-2 10-6 12-12zM582 586c10 2 20 4 28 4 16 0 32-4 46-12 4 8 12 14 22 20-4-2-8-2-12-2-28 0-48 10-64 30-2-18-8-32-20-40zM640 364v2c0 6 2 12 6 16 0 0-2 0-4 0-16 0-30 8-44 26-2-24-12-44-28-60l4-48c20 22 42 42 66 64zM516 238c10 12 22 26 36 40l-4 54c-10-4-22-8-34-8-8 0-18 2-28 6-2 0-6 2-10 4 10-48 18-86 24-120 4 6 10 14 16 24zM458 692c6 0 12 0 18-2-2 4-2 10-2 16v4c-4-6-10-12-16-18zM444 260c6-4 10-10 14-16-6 32-14 70-22 114-8 6-14 14-16 24-8-6-18-8-26-12 8-10 12-20 12-30v-4c-2-8-6-16-16-22 22-20 40-38 54-54zM360 578c12-2 22-6 30-16-2 4-2 6-2 10-10 4-20 10-28 18 0-4 0-8 0-12zM426 562c2-12 4-26 8-40 2 0 4 0 4 0 6 0 12-2 16-4-2 10-4 20-4 30 0 6 2 12 2 18-8-2-18-4-26-4zM494 794c0-2 0-6 0-8 0-10-2-16-6-20-4-6-8-8-14-8-2 0-4 0-6 2 8-6 12-12 12-22 8 14 18 26 32 34l-2 20c-6 0-12 2-16 2zM520 670c-4 0-10 0-12 0 2-6 2-10 2-16 0-14-6-32-18-52 14 0 26-6 36-18l-2 20c-6 8-8 18-8 30 0 6 2 14 4 22zM872 680c16 0 30-2 44-10 16-8 30-20 40-34 8-14 14-28 14-40v-2c0-14-4-24-14-28-6-4-12-6-20-6s-16 2-26 4c14-16 22-32 22-46 0-4 0-6 0-8-4-16-14-28-28-38-10-6-20-8-30-8-6 0-10 0-16 2-16 6-28 18-32 38-12-10-24-22-38-36 2-4 2-8 2-14 0-2 0-6 0-8 8 2 16 2 22 2 18 0 36-6 50-16 18-14 28-28 28-46 0-8-4-16-12-20-4-2-10-2-16-2s-12 0-20 2c12-10 18-20 18-32 0-2-2-6-2-8-4-12-12-20-26-26-8-2-14-4-18-4-6 0-12 2-18 4-12 6-18 16-22 32-14-18-32-28-52-30-4 0-6-2-10-2-16 0-32 8-46 20-6 6-12 14-18 20-28-26-54-50-74-70-16-18-30-34-40-48-14-16-24-32-30-44 2-18 4-32 4-42 2-42 4-86 8-136l4-62h-58c0 2 2 8 2 18 2 14 4 30 6 44 4 38 4 72 4 106 0 10 0 20 0 28 0 14-2 34-6 60-12 16-24 34-40 52-18 20-40 40-64 62h-2c-22 0-44 10-66 26 0-2 0-6 0-10 0-10-2-20-10-28-6-8-16-14-28-14h-4c-16 0-26 6-32 20-4 4-6 12-6 18 0 14 6 30 16 48-10-2-20-4-28-4-18 0-30 8-36 26-8-2-18-4-26-4s-16 2-24 4c-18 4-32 14-44 28-16 18-24 36-24 52 0 4 0 8 2 12 2 14 12 22 26 22 6 0 12-2 20-4-22 8-34 20-38 36 0 4 0 6 0 8 0 10 4 20 14 28 6 6 14 10 22 10 2 0 4-2 6-2 14-2 24-12 32-28 6 36 20 56 42 62 4 2 8 2 10 2 10 0 16-4 22-10 8-8 12-18 12-30 0-4 0-6 0-10 12 6 24 8 36 8 2 0 4 0 6 0 0 4-2 8-2 12 0 12 6 24 14 36-12-4-22-8-30-8-10 0-16 4-22 10-6 8-8 16-8 24s2 16 4 26c8 20 22 36 40 48 16 10 32 14 50 14 4 0 6 0 10 0-4 8-4 16-4 22 0 14 6 24 22 26 2 2 6 2 8 2 10 0 20-4 30-8 16-10 28-22 40-38 2 10 8 16 16 20 6 4 12 6 18 6 2 0 6-2 8-2-14 8-24 22-30 42-4-10-12-16-22-16h-2c-12 2-20 6-22 16-2 4-2 6-2 10 0 10 6 24 22 36-22 4-32 14-32 30v2c0 14 8 30 24 50 10 14 24 20 38 20 2 0 6 0 8 0 18-4 32-14 44-34 2 18 10 30 20 34 4 2 8 4 12 4 6 0 14-2 20-6 10-8 16-16 20-28 0-4 0-6 0-8 0-12-6-24-16-36 6 2 12 4 16 4 8 0 14-2 18-6s6-10 6-18c0-4 0-6 0-8-4-28-20-46-46-56l2-16c4 0 10 2 14 2 12 0 24-4 38-10-2 4-2 8-2 10 0 12 4 22 12 30 6 6 14 10 24 10 2 0 6 0 8 0 26-6 42-26 48-62 8 16 18 24 32 28 2 0 4 0 8 0 8 0 16-2 22-8 10-8 16-18 16-28 0-2 0-4 0-8-4-14-18-26-42-36 10 4 16 4 22 4 14 0 22-4 28-16 16 20 32 30 50 30 2 0 6 0 8-2 16-2 24-14 24-32 0-6 0-10 0-14 10 2 18 2 28 2z" />
<glyph unicode="&#xe014;" glyph-name="shower" d="M750-34c8-8 16-12 26-12v0c4 0 8 2 8 2 2 0 2 2 2 2s0 2-2 2c-8 8-14 16-16 20-6 8-8 18-10 34l-2 10h10c42 2 70 24 80 62l30 128c4 16 8 32 14 48h-772c2-24 4-50 6-76l10-86c2-24 12-44 28-56 16-14 38-20 64-20h16l-2-10c-2-16-4-26-10-34-2-4-8-12-16-20v-4c0 0 4-2 8-2 10 0 18 4 26 12l2 2c4 4 6 20 8 46v10h482l2-10c0-26 4-42 6-46zM252 650c-14 0-24-6-30-20-4-6-6-12-8-20h76c-2 8-4 14-6 20-6 14-18 20-32 20zM172 280h748l-6-14c-8-14-14-34-20-56l-30-130c-14-44-42-68-86-74 0-6 2-12 4-14 4-6 10-14 18-22v0l2-2c0-4 2-6 2-10s-2-8-4-12c-4-6-12-10-24-10h-2c-14 0-26 6-36 16l-4 2c-4 6-8 22-10 52h-450c-2-30-6-46-10-52l-4-2c-10-10-22-16-36-16-12 0-22 4-26 10-2 4-4 8-4 12s2 6 4 10v2c10 12 16 18 18 22 2 2 4 6 4 14-28 0-52 8-72 24-18 16-30 38-34 66l-8 90c-2 36-4 64-8 82l-2 12h58v374c0 22 6 40 18 54 10 12 22 18 36 18s26-6 36-18c8-10 14-24 16-40 14-2 26-8 34-20 8-10 12-22 14-36v-20h-114l2 22c2 12 6 24 14 34s20 18 32 20c-2 10-6 18-10 26-6 8-14 12-24 12s-18-4-24-12c-8-10-12-22-12-40zM150 320c0-2-2-4-6-6 0 0-2-2-2-2-2 0-2 2-4 2s-4 2-8 2v0-2c0-2 0-6 2-8 0 0 0-2 0-2 0-2 0-2-2-4 0-2-2-4-4-6-2 0-2 0-4 0-4 0-6 2-8 6 0 2 0 2 0 4 0 0 0 2 0 2 0 2 2 6 2 8v2c-4 0-6-2-10-2 0 0-2-2-4-2s-6 4-6 8c-2 2-2 2-2 4 0 4 2 6 6 6 2 2 2 2 4 2 0 0 2 0 2-2 4 0 6 0 10-2 0 4-2 8-2 10s-2 2-2 4c0 4 2 6 8 8 0 0 2 0 4 0 4 0 6-2 8-6 0-2 0-2 0-4 0 0 0-2 0-2-2-2-2-6-2-10v0c2 2 6 2 8 2 2 2 2 2 4 2 4 0 6-2 8-6 0-2 0-4 0-6zM232 320c0-2-2-4-6-6 0 0-2-2-2-2-2 0-2 2-4 2s-4 2-8 2v0c0 0 0-2 0-2 0-2 0-6 2-8 0 0 0-2 0-2 0-2 0-2 0-4-2-2-4-4-6-6-2 0-2 0-4 0-4 0-6 2-8 6 0 2 0 2 0 4 0 0 0 2 0 2 0 2 2 6 2 8v2c-4 0-6-2-8-2s-4-2-4-2c-4 0-8 4-8 8-2 0-2 2-2 4 0 4 2 6 6 6 2 2 4 2 4 2 2 0 2 0 4-2 2 0 4 0 8-2 0 4-2 8-2 10s0 2 0 4c0 4 2 6 6 8 2 0 2 0 4 0 4 0 6-2 8-6 0-2 0-2 0-4 0 0 0-2 0-2-2-2-2-6-2-10v0c4 2 6 2 8 2 2 2 2 2 4 2 4 0 6-2 8-6 0-2 0-4 0-6z" />
<glyph unicode="&#xe015;" glyph-name="sofa" d="M188 56h660v-98h-660zM264 354l-144-58 8 98c0 12 2 20 10 28s16 12 26 12h706c10 0 20-4 26-12 8-8 12-16 12-28l8-98h-6l-144 58-56-142 38-14h-468l38 14zM946 274c12 0 22-4 30-14s12-22 12-38v-264h-120v264c0 14 2 24 10 34 6 10 14 16 22 18 4 0 6 0 8 0zM848 178v-102h-660v102zM128 274c10 0 20-4 28-14s12-22 12-38v-264h-120v264c0 16 4 28 12 38s18 14 30 14z" />
<glyph unicode="&#xe016;" glyph-name="chair" d="M752 276c14 0 26-4 34-16 10-10 14-24 14-40s-4-30-14-40c-8-12-20-16-34-16h-366c-26 0-40 18-40 56s14 56 40 56zM420 350l14-58h-48c-18 0-32-6-40-18-10-14-16-32-16-54s6-40 16-54c8-12 22-18 40-18h366c10 0 20 2 30 6v-180h-14c6-4 10-8 12-12 0-2 0-4 0-6 0-6-2-10-6-14-6-4-12-6-18-6-8 0-14 2-20 6-4 4-6 8-6 14 0 2 0 4 0 6 2 4 6 8 12 12h-392c6-4 10-8 12-12 0-2 0-4 0-6 0-6-2-10-8-14-4-4-10-6-18-6-6 0-12 2-18 6-4 4-6 8-6 14 0 2 0 4 0 6 2 4 6 8 12 12h-14v224c-12 98-32 180-58 248-4 8-6 16-6 24s2 16 6 24c8 16 20 26 38 32 12 4 22 6 32 6 56 0 96-4 118-16 16-10 28-22 34-40l2-24c0-6-4-14-8-22-16-32-34-58-48-80z" />
<glyph unicode="&#xe017;" glyph-name="road" d="M598 390v4l-14 182c0 4-2 10-6 12-4 4-8 6-12 6h-108c-4 0-8-2-12-6-4-2-6-8-6-12l-14-182v-4c0-4 0-8 4-10 4-4 8-6 12-6h140c4 0 8 2 12 6 4 2 4 6 4 10zM1032 124c0-28-8-42-26-42h-402c4 0 8 2 12 6s4 8 4 12l-10 146c-2 6-4 10-8 14-2 4-8 6-12 6h-156c-4 0-10-2-12-6-4-4-6-8-8-14l-10-146c0-4 0-8 4-12s8-6 12-6h-402c-18 0-26 14-26 42 0 20 4 42 14 66l240 596c2 8 8 14 14 20s14 8 22 8h194c-6 0-10-2-14-6s-6-8-6-12l-8-110c0-6 0-10 4-14 4-2 8-4 12-4h96c4 0 8 2 12 4 4 4 4 8 4 14l-8 110c0 4-2 8-6 12s-8 6-14 6h194c8 0 16-2 22-8s12-12 14-20l240-596c10-24 14-46 14-66z" />
<glyph unicode="&#xe018;" glyph-name="tree" d="M792 544c12-12 22-28 30-46 10-18 14-36 16-56l-4-4c-8 6-22 14-44 26l-36 24c-12 8-24 16-36 24-12 12-24 20-36 26s-26 12-40 18c-14 4-28 10-42 12-10 4-22 6-36 8 0-26-8-46-20-58l6-582h-48l6 574c-18 12-28 36-28 74-14 0-26-2-38-6-14-2-26-6-36-12-12-6-22-12-32-20-8-6-16-16-24-30-8-10-16-22-24-30l-26-32c-14-14-24-26-32-34l-6 4c-2 8-4 18-4 28 0 8 2 16 2 24 2 18 8 34 16 50 8 18 18 30 30 42 12 8 26 18 42 26s30 14 46 18c12 2 24 2 36 2h10c10 0 20-2 30-4-14 8-28 16-42 20-14 6-28 10-42 14s-28 6-44 8c-4 2-12 2-20 2-6 0-14 0-22-2-6 0-10 0-14 0-10 0-20 2-30 2-14 2-30 4-44 8-18 4-34 8-48 14v6c12 12 26 22 44 30 16 6 32 12 48 14 6 0 12 0 18 0 10 0 20 0 32-4 6 0 22-6 48-14 16-6 30-12 46-20 14-8 28-16 42-26 16-12 30-26 42-40 2 6 4 10 6 14-12 22-26 40-40 58-10 12-18 24-30 34-10 10-20 20-32 28-8 8-18 14-34 22-12 6-24 14-34 22-12 8-22 18-34 28-14 12-26 24-34 32v8c14 4 26 6 40 6h8c16 0 32-4 48-10 14-6 28-16 40-28 6-4 18-18 34-36 10-14 20-26 30-40 8-14 16-30 24-44 10-24 18-44 24-66 4 6 8 10 12 10 0 16 0 30 0 44-2 16-2 30-4 42 0 14-2 28-4 42 0 10-2 24-6 42-2 14-4 28-4 40v16c0 8 0 18 0 28 2 18 4 32 6 44l6 2c8-10 16-22 24-38 6-14 10-28 14-42 2-12 4-24 4-38v-8c0-4-2-12-2-22s0-16 0-22c-2-14-2-30-4-44s-4-28-6-44c-2-14-4-28-8-40 4-2 8-4 12-6 6 18 14 36 26 56 8 14 16 26 28 40 10 12 20 24 32 34 18 16 32 26 38 32 12 8 26 16 42 18 10 4 22 4 32 4 6 0 10 0 14 0 8-2 16-2 22-4 10-4 18-6 24-10v-8c-2 0-8-6-18-14-4-4-10-8-18-14-12-6-24-14-36-22-10-6-22-10-36-14-16-6-28-10-36-16-12-6-22-14-34-22-10-8-22-18-30-28-14-14-28-30-38-46 2-4 4-8 6-14 12 10 24 20 36 28 14 10 30 16 44 22 18 6 34 12 50 14 20 2 34 4 48 4h4c18-2 34-6 50-16 16-8 30-18 42-32 14-16 24-32 30-48l-4-6c-10 2-26 4-48 10l-42 10c-12 4-24 6-38 12-16 6-28 8-40 8-4 2-8 2-12 2-10 0-20-2-30-4-14 0-28-4-42-8-14-6-28-12-42-18 0-2 0-4 0-6 12 2 26 4 38 4 18 0 34 0 50-2s32-6 48-10c22-8 38-12 48-16 16-8 30-18 44-32z" />
<glyph unicode="&#xe019;" glyph-name="map" d="M942 878c0 0 0 0 0 0 0 16-12 28-28 28v0c0 0 0 0 0 0s0 0 0 0h-508l-324-322v-566c0 0 0 0 0 0 0-16 12-28 28-28h804c14 0 24 8 28 22v0 4c0 0 0 0 0 2 0 0 0 0 0 0zM692 804h148v-250l-186 184zM406 556v0c14 0 28 12 28 28 0 0 0 0 0 0v220h200l-278-480-172 170v62zM184 92v330l144-144-106-186zM280 92l348 600 212-212v-388zM636 494c-68 0-124-56-124-124 0-28 8-52 24-72l80-138c0-2 0-2 2-2v-2c4-4 10-8 18-8 6 0 12 2 16 8v0h2c0 2 2 4 2 6l78 134c16 22 24 46 24 74 0 68-54 124-122 124zM634 308c-34 0-60 26-60 60s26 62 60 62c34 0 60-28 60-62s-26-60-60-60z" />
<glyph unicode="&#xe01a;" glyph-name="direction-sign" d="M896 912h-624c-26 0-48-12-64-30l-126-160c-22-30-22-70 0-100l126-160c16-18 38-30 64-30h288v-424c0-14 10-24 24-24h48c14 0 24 10 24 24v424h240c44 0 80 36 80 80v320c0 44-36 80-80 80zM944 512c0-26-22-48-48-48h-624c-16 0-30 6-38 18l-126 160c-14 18-14 42 0 60l126 160c8 12 22 18 38 18h624c26 0 48-22 48-48zM774 718l-166 124c-10 8-22 8-32 0l-166-124c-8-6-12-18-8-28 2-10 12-18 24-18h6v-136c0-22 18-40 40-40h240c22 0 40 18 40 40v136h6c12 0 22 8 24 18 4 10 0 22-8 28zM720 536c0-4-4-8-8-8h-56v80c0 18-14 32-32 32h-64c-18 0-32-14-32-32v-80h-56c-4 0-8 4-8 8v136h256z" />
<glyph unicode="&#xe01b;" glyph-name="commission-male" d="M576 398c-22-30-52-48-88-56l10-28-14-38 20-188zM326 490c0-36 12-66 38-92 26-24 56-38 92-38 34 0 66 14 90 38 26 26 38 56 38 92v54l14-2h2c10 0 16 6 16 18v22c0 10-4 16-12 18 0-4 2-10 2-18 0-12-4-22-14-30-8-8-20-12-32-12h-52c-12 0-22 4-32 12-8 8-12 18-12 30 0 10 0 16 2 22h-20c2-6 4-12 4-22 0-8-4-16-8-24-2-2-2-8-2-14-2-18-2-28-2-32v-2c2-2 4-2 8-2 6 0 14 2 24 4h2c2 0 4-2 6-4v-2c0-2-2-4-6-6-10-2-18-2-26-2s-14 0-18 4c0 2-2 6-2 14s2 16 2 28v4c-8-6-16-8-24-8h-52c-10 0-18 2-26 8zM446 276l-14 38 10 24c-40 4-72 20-100 50l84-308zM324 550c-12 8-18 20-18 32 0 8 2 14 2 18-2 0-4 0-4 0-12 0-18-6-18-18v-22c0-12 6-18 18-18 2 0 4 0 6 2zM324 592c0-2 0-6 0-10 0-6 2-12 8-18 6-4 12-6 20-6h52c14 0 24 6 28 20 0 2 0 6 0 8 0 14-6 20-16 20h-78c-6 0-10-2-12-6v-8zM326 622c4 2 8 2 12 2h78c6 0 12 0 16-2-2 8-4 14-8 16-10 6-22 8-34 8-16 0-34-4-52-14-2 0-2-2-4-2s-2 2-4 4c0 2 0 2 0 4s0 2 2 4c20 10 38 16 56 16 14 0 28-4 42-10 6-4 10-12 12-28h38c4 2 10 4 16 4h78c4 0 6 0 10-2v6l-44 88c-56-6-102-8-138-8-20 0-36 0-48 2-14-16-22-36-26-58 0-8-2-16-2-22zM588 582c0 8 0 14-2 16v0 4c-4 4-8 4-12 4h-78c-10 0-16-8-16-24 0-6 2-12 8-18 6-4 12-6 20-6h52c8 0 14 2 20 6 6 6 8 12 8 18zM558 786c8-2 16-2 22-4 24-8 38-34 38-78v-2c0-24-4-48-10-74v-6c10-2 18-6 24-16h254v328h-328zM806-64h-696v292c0 26 62 66 188 122l36 48c-20 28-30 58-30 92v30c-12 0-20 4-28 12s-12 18-12 28v22c0 12 4 22 12 30s16 12 28 12v4c-14 24-24 48-28 74-2 10-2 20-2 28 0 34 10 60 34 80l12 12 6-16c6-18 32-28 80-28 4 0 8 0 14 0 12 4 24 4 36 4 4 0 10 0 16 0h12c22 2 40 4 50 4v172h376v-374h-270v-24c0-10-4-18-10-26s-14-12-22-14v-30c0-32-10-62-28-88l38-52c126-56 188-96 188-122zM640 838c-4-2-6-8-6-18 0-8 2-14 6-18 2-4 8-4 14-4s12 0 14 4c4 4 6 10 6 18 0 10-2 16-6 18-2 4-8 6-14 6s-12-2-14-6zM654 766c-16 0-28 6-38 14-8 10-12 24-12 40 0 18 4 30 12 40 10 10 22 14 38 14s28-4 38-14c8-10 14-22 14-40 0-16-6-30-14-40-10-8-22-14-38-14zM636 680l140 200 26-18-140-200zM808 722c0 10-2 16-4 20-4 2-8 4-14 4-8 0-12-2-16-4-2-4-4-10-4-20 0-8 2-14 4-18 4-2 8-4 16-4 6 0 10 2 14 4 2 4 4 10 4 18zM752 762c8 10 22 14 38 14s28-4 36-14c10-8 14-22 14-40 0-16-4-28-14-38-8-10-20-16-36-16s-30 6-38 16c-10 10-14 22-14 38 0 18 4 32 14 40zM526 466c0 0 0 0 0-2-6-14-30-20-72-20s-66 6-68 22v0c0 4 2 6 4 6h2c2 0 4-2 6-4 4-8 22-14 56-14 36 0 56 6 60 14 2 4 4 4 6 4 0 0 2 0 2 0 2-2 4-2 4-6zM470 636c-2 0-4 2-4 4-2 0-2 2-2 2 0 2 2 4 4 6 14 6 26 10 42 10 18 0 36-6 56-16 2-2 4-2 4-4s-2-2-2-4c0-2-2-2-4-2s-2 0-4 0c-18 10-36 14-52 14-12 0-24-2-34-8-2 0-2-2-4-2zM374 580c-8 0-10 4-10 12s2 12 10 12c8 0 12-4 12-12s-4-12-12-12zM536 604c8 0 12-4 12-12s-4-12-12-12c-8 0-12 4-12 12s4 12 12 12z" />
<glyph unicode="&#xe01c;" glyph-name="commission-female" d="M432 430c28 0 54 12 78 34 20 20 34 42 44 66 4 22 6 42 8 62v8c0 20 0 42-2 66-2 6-4 12-6 16-24 26-36 56-36 86-8-14-24-26-44-32-12-4-34-6-62-8s-48-4-60-8c-18-6-32-18-38-34-8-18-10-40-10-66 0-30 4-64 14-106 32-56 72-84 114-84zM578 808c4-2 8-6 10-8 36-46 56-110 62-190h254v324h-326zM508 352c10 0 14 6 14 16s-4 16-14 16c-10 0-16-6-16-16s6-16 16-16zM492 148c2 10 10 76 28 196-4-2-8-2-12-2-6 0-10 0-14 2 0 0 0-2 0-2 0-8-2-14-6-18-6-6-12-8-20-8-4 0-10 0-14 4-4-12-12-18-24-18-14 0-22 6-26 18-4-4-8-4-14-4-8 0-14 2-18 8-6 4-8 10-8 18 0 0 0 2 0 2-4-2-8-2-12-2s-8 0-12 2c16-116 26-180 30-192 4-16 26-24 64-24 36 0 54 8 58 20zM352 384c-12 0-16-6-16-16s4-16 16-16c10 0 14 6 14 16s-4 16-14 16zM390 358c-10 0-14-6-14-16s4-16 14-16c10 0 16 6 16 16s-6 16-16 16zM414 332v-4c0-10 6-14 16-14s14 4 14 14v4c0 0 0 2-2 4-2 6-6 8-12 8s-12-2-14-8c0-2 0-4-2-4zM468 358c-10 0-14-6-14-16s4-16 14-16c10 0 16 6 16 16s-6 16-16 16zM774-66h-688v348c0 26 64 66 196 122l42 54c2-20 6-44 10-70 4 4 10 6 18 6 6 0 12-2 18-8 6-4 8-10 8-18v-4c4 4 8 4 12 4 12 0 20-6 24-16 6 2 10 4 16 4 4 0 10-2 14-4 4 10 12 16 24 16 4 0 8 0 14-4-2 2-2 4-2 4 0 8 4 14 8 18 6 6 12 8 20 8 6 0 12-2 18-6 2 14 4 28 6 44s4 24 4 24c-2 0-2 0-4-2 0 2 0 2 2 2-30-32-64-48-102-48-34 0-68 16-98 48-46 28-84 40-116 40 0 78 0 128 4 152 8 62 26 112 58 152 34 44 84 68 152 70h8c24 0 46-4 62-12 22-8 32-22 36-38 6 0 12-2 18-4v142h370v-372h-276v-90c-30 0-68-12-114-38l40-54c132-56 198-96 198-122zM660 840c-4-4-6-10-6-20 0-8 2-14 6-18 2-2 8-4 14-4s12 2 14 4c4 4 6 10 6 18 0 10-2 16-6 20-2 2-8 4-14 4s-12-2-14-4zM674 768c-16 0-28 4-38 14-8 10-12 22-12 38 0 18 4 32 12 40 10 10 22 14 38 14s28-4 38-14c8-8 12-22 12-40 0-16-4-28-12-38-10-10-22-14-38-14zM656 682l138 198 26-18-138-198zM826 724c0 10 0 16-4 20-4 2-8 4-14 4-8 0-12-2-14-4-4-4-6-10-6-20 0-8 2-14 6-18 2-2 6-4 14-4 6 0 10 2 14 4 4 4 4 10 4 18zM770 764c10 10 22 14 38 14s28-4 36-14c10-10 14-22 14-40 0-16-4-28-14-38-8-10-20-14-36-14s-28 4-38 14c-8 10-12 22-12 38 0 18 4 30 12 40zM334 684c-2 0-2 0-4 2 0 2 0 4 0 4 0 2 0 4 2 4 16 10 32 16 44 16s22-4 30-10c20-12 28-28 28-52v-4c0-14-6-32-14-56-4-6-6-12-6-14 2 0 4 0 8 0s10 0 16 2h2c2 0 4-2 6-4v-2c0-2-2-4-4-6-8 0-14-2-20-2-8 0-14 2-16 6-2 0-2 2-2 4 0 6 2 12 4 20 10 24 14 42 16 54v4c0 18-8 32-24 40-6 6-14 8-22 8-12 0-26-4-40-14-2 0-2 0-4 0zM500 710c8 0 14-2 22-4s16-6 20-12c2-2 2-2 2-4s0-2-2-4c0-2-2-2-4-2 0 0-2 0-4 2-8 8-20 14-30 14s-20-4-32-10c0 0-2 0-2 0-2 0-4 0-6 2 0 2 0 4 0 4 0 2 0 4 2 4 12 6 24 10 34 10zM386 640c-6 8-12 12-18 12s-12-4-18-12zM406 630h-76l4 8c8 16 20 24 34 24s26-8 34-24zM522 640c-6 8-12 12-18 12-8 0-14-4-20-12zM504 662c14 0 24-8 34-24l4-8h-76l4 8c8 16 18 24 34 24zM418 516c6-6 12-10 18-10s12 4 18 10zM398 528h76l-4-8c-8-18-20-26-34-26s-26 8-34 26z" />
<glyph unicode="&#xe01d;" glyph-name="agent-male" d="M480 726c-2 0-4 2-4 4s-2 2-2 4c0 2 2 2 4 4 12 6 26 10 40 10 18 0 38-6 56-16 2-2 4-2 4-4s0-2-2-4c0-2-2-2-4-2s-2 0-2 0c-18 10-36 14-52 14-12 0-24-2-34-8-2-2-2-2-4-2zM386 670c-8 0-12 4-12 12s4 12 12 12c8 0 12-4 12-12s-4-12-12-12zM544 694c8 0 12-4 12-12s-4-12-12-12c-8 0-12 4-12 12s4 12 12 12zM694 474l-10 92c-40 50-62 76-72 78-4 0-10-8-20-24-10-18-16-30-16-40 0-6 12-18 36-32l8-4-6-6c-14-12-22-28-22-46 0-4 0-8 2-14 4-20 16-36 32-46zM560 478c2 2 10 10 22 22 2 14 8 28 20 42-8 4-14 8-18 12l-8-14-12 16c-2 4-6 4-12 4-10 0-24-4-40-14-18-10-28-20-34-32 0-2-2-4-2-8 0-2 2-2 2-4l6-8c12-16 28-24 48-24 10 0 18 4 28 8zM566 470v-2l-4-2c-22-18-48-28-78-32l12-26-16-36 20-186zM338 582c0-36 12-66 38-90 24-26 54-38 90-38 14 0 30 4 44 8-14 6-26 14-36 26l-4 6c-4 4-4 8-4 12s0 10 2 14c4 4 8 10 14 16-6 0-12 0-18 0-42 0-64 8-66 22v0c0 4 0 6 4 6h2c2 0 4-2 4-4 4-8 24-12 56-12 14 0 24 0 32 2 22 14 40 22 56 22 10 0 16-2 22-8v-2h2c-8 8-10 14-10 18 0 16 8 34 24 56-6-2-14-4-22-4h-50c-12 0-24 4-32 12s-14 18-14 28c0 10 2 16 4 22h-20c2-6 4-12 4-22 0-8-4-16-8-22-2-4-2-10-2-16-2-14-2-24-2-28v-4c2-2 4-2 8-2 6 0 14 2 24 4h2c2 0 4-2 4-6v0c0-4 0-4-4-6-10-2-18-4-26-4s-14 2-16 6c-2 2-4 6-4 14 0 6 2 16 2 28l2 2c-8-4-16-6-26-6h-50c-10 0-18 2-26 6zM336 640c-12 10-18 20-18 32 0 8 2 14 2 18-2 0-2 0-4 0-4 0-8 0-12-4s-6-8-6-12v-24c0-4 2-8 6-12 4-2 8-4 12-4 2 0 4 0 6 0zM336 684c0-4 0-8 0-12 0-6 2-12 8-16 6-6 12-8 20-8h50c16 0 24 6 28 20 0 2 0 6 0 8 0 14-6 20-14 20h-78c-6 0-10-2-12-6v-8zM338 712c4 2 8 2 12 2h78c4 0 10 0 14-2-2 8-4 14-6 16-12 6-24 8-36 8-16 0-32-4-50-14-2 0-2-2-4-2s-4 2-4 4c0 2-2 2-2 4s2 2 4 4c20 10 38 16 56 16 14 0 28-4 40-10 8-4 12-14 14-28h36c4 2 8 4 14 4h78c4 0 8 0 10-2v6l-44 86c-54-4-100-8-136-8-18 0-34 2-46 2-14-16-22-36-26-58 0-6-2-14-2-20zM594 692c-2 4-6 4-12 4h-78c-4 0-8 0-10-4-4-2-4-10-4-20 0-6 2-12 8-16 6-6 12-8 20-8h50c8 0 14 2 20 8 6 4 8 10 8 16 0 8 0 14-2 18v-2zM612 700c-2-6-2-10-2-14 0-16 4-26 10-32 0 0 2-2 2-2l2-2 8-2h10l-6-10c8-6 16-16 26-28 18 34 28 62 30 78 2 2 2 6 2 8 0 10-4 22-12 32-10 12-22 20-36 22l-8 2h-2c-6 0-10-4-16-14-4-10-8-22-8-38zM798-64h-686v388c0 24 62 64 186 120l40 54 84-320 22 194-14 36 10 26c-36 6-66 24-88 50-24 28-36 60-36 98v28c-12 0-20 4-28 12s-12 18-12 28v24c0 10 4 20 12 28s16 12 28 12v4c-14 24-24 48-28 74-2 10-2 18-2 28 0 32 10 58 34 78l12 12 6-18c6-18 32-26 80-26h14c10 2 22 4 34 4 4 0 10 0 16-2 2 2 4 2 6 2s4 0 4 0c30 2 50 4 62 4 14 0 26-2 34-4 24-8 38-34 38-76 0-10-2-22-4-36 4 4 8 6 14 6 0 0 2 0 4-2h8c18-4 32-14 44-28 8-12 12-24 12-38 0-4 0-6 0-10-2-18-14-46-34-86 8-10 16-20 24-30v0l10-90 26 16c78-130 128-222 152-278 8-20 14-38 14-54 0-18-6-34-18-46-8-10-20-14-34-16h-2c-14 0-30 6-44 14z" />
<glyph unicode="&#xe01e;" glyph-name="agent-female" d="M364 680c-2 0-4 2-6 4 0 0 0 2 0 2 0 2 0 4 2 6 18 10 32 14 46 14 10 0 20-4 30-10 18-12 28-28 28-52v-4c0-14-6-32-16-56-2-8-4-12-4-14 2 0 4-2 8-2s10 2 16 4h2c2 0 4-2 6-6 0 0 0 0 0-2s-2-4-6-4-12-2-18-2c-8 0-14 2-18 4 0 2 0 4 0 6 0 4 0 12 4 20 10 24 14 42 14 54v4c0 18-6 32-22 42-6 4-14 6-24 6-12 0-24-4-40-12 0-2-2-2-2-2zM500 686c-2 0-4 2-6 4 0 0 0 2 0 2 0 2 0 4 2 4 12 8 24 10 34 10 8 0 14 0 22-4 8-2 16-6 22-12 0 0 2-2 2-4 0 0-2-2-2-4-2 0-4-2-4-2-2 0-4 2-4 2-6 4-12 8-18 10s-10 4-16 4c-10 0-20-4-30-10 0 0-2 0-2 0zM416 636c-6 8-12 12-18 12-8 0-14-4-20-12zM436 626h-78l4 8c10 16 20 26 36 26 14 0 24-10 34-26zM552 636c-6 8-12 12-18 12s-12-4-20-12zM534 660c14 0 26-10 34-26l4-8h-78l6 8c8 16 20 26 34 26zM466 500c6 0 12 4 18 12h-38c6-8 12-12 20-12zM500 514c-8-16-20-26-34-26s-26 10-36 26l-4 8h78zM700 450l14 64c-40 50-64 78-72 80-4 0-12-10-22-26-10-18-14-30-14-40v0c0-6 16-18 46-32l10-4-8-6c-8-4-14-10-20-18-10-10-14-20-14-30 0-4 0-8 2-12s6-6 12-6c4 0 8 0 14 2zM624 390c-2 6-4 12-4 16l6 4c-4 0-6 2-10 4-4-4-8-8-12-12l4-4c6-4 12-6 16-8zM588 402c4 2 10 10 22 22 0 6-2 10-2 14 0 18 10 36 32 52-6 2-12 6-16 8l-20-32-12 16c-2 2-6 4-10 4-12 0-26-6-44-16-16-10-26-20-32-32-2-2-2-4-2-6s0-4 2-6l4-8c14-16 30-24 50-24 10 0 20 2 28 8zM556 380v2h-2c0 0 2 0 2-2zM538 346c10 0 14 6 14 16s-4 14-14 14c-10 0-16-4-16-14s6-16 16-16zM522 140c2 10 10 76 28 198-4-2-8-4-12-4s-10 2-14 4v-2c0-8-2-14-6-20-6-4-12-8-20-8-6 0-10 2-14 4-4-10-12-16-26-16-12 0-20 6-24 16-4-2-10-4-14-4-8 0-14 4-20 8-4 6-8 12-8 20l2 2c-6-2-10-4-14-4s-8 2-12 4c18-118 28-184 30-194 2-8 10-12 22-18 12-4 28-6 44-6s28 2 40 6c10 4 16 8 18 14zM380 376c-10 0-16-4-16-14s6-16 16-16c10 0 16 6 16 16s-6 14-16 14zM420 350c-10 0-16-4-16-14s6-16 16-16c10 0 14 6 14 16s-4 14-14 14zM444 324v-2c0-10 4-16 14-16 12 0 16 6 16 16v2c0 2-2 4-2 6-2 6-8 8-14 8s-10-2-12-8c-2-2-2-4-2-6zM498 350c-10 0-16-4-16-14s6-16 16-16c10 0 16 6 16 16s-6 14-16 14zM492 430v0c0 6 2 10 4 14 6 10 16 22 30 32s30 16 42 20c8 10 12 20 16 30 4 22 8 42 10 60v10c0 20-2 42-4 66-2 6-2 12-4 16-26 28-38 56-38 88-8-16-22-26-44-32-12-4-34-8-62-10s-48-4-60-8c-20-6-32-16-40-32-6-18-10-42-10-68 0-30 4-66 14-106 34-58 72-86 116-86 10 0 20 2 30 6zM640 628c0-4 0-8 0-12s0-8 0-12c2 0 2 0 2 0h2c8 0 26-18 54-54 14 30 22 52 24 64 2 4 2 6 2 8 0 12-4 22-12 32-10 12-22 20-36 24l-10 2h-2c-4 0-10-6-14-14-4-10-8-24-10-38zM806-66h-694v342c0 24 66 64 198 122l42 54c2-20 6-42 10-70 6 4 12 6 18 6 8 0 14-2 18-8 6-4 8-10 8-18v-4c4 4 8 4 14 4 12 0 20-6 24-18 4 4 10 4 14 4 6 0 10 0 16-4 4 12 12 18 24 18 4 0 8 0 14-4-2 2-2 4-2 4 0 14 8 24 22 26-10 4-20 12-28 20-14-4-28-6-42-6-36 0-70 16-100 48-46 28-84 42-118 42 0 78 2 128 6 152 6 62 26 114 58 154 34 44 86 68 152 70h10c24 0 46-4 62-12 22-8 34-22 36-40 24 0 42-6 52-18 22-30 38-66 48-108v0h2l8-2c18-2 32-12 44-26 8-12 12-26 12-40 0-2 0-6 0-8-2-14-10-40-28-74 6-6 12-14 18-22l2-2-16-68c94-112 150-212 170-302 6-22 8-40 8-56 0-18-4-32-12-40-4-4-10-6-18-6-12 0-30 8-52 26z" />
<glyph unicode="&#xe01f;" glyph-name="interest-rate" d="M784 448v0 96h16c20 0 38 14 46 32 6 20 0 42-18 54l-352 264c-16 14-40 14-56 0l-352-264c-18-12-24-34-18-54 6-18 26-32 46-32h16v-480c0-44 36-80 80-80h512c44 0 80 36 80 80v0c106 0 192 86 192 192s-86 192-192 192zM848 160c-26 0-48 22-48 48s22 48 48 48c26 0 48-22 48-48s-22-48-48-48zM736 368c26 0 48-22 48-48s-22-48-48-48c-26 0-48 22-48 48s22 48 48 48zM708 204l128 128c6 6 16 6 24 0 6-8 6-18 0-24l-128-128c-6-6-16-6-24 0-6 8-6 18 0 24zM752 64c0-26-22-48-48-48h-192v256c0 26-22 48-48 48h-160c-26 0-48-22-48-48v-256h-64c-26 0-48 22-48 48v480h608v-98c-92-16-160-96-160-190s68-174 160-190z" />
<glyph unicode="&#xe020;" glyph-name="bank" d="M784 448c-16 0-32-2-48-6v38h16c8 0 16 8 16 16v48h32c20 0 38 14 46 32 6 20 0 42-18 54l-352 264c-16 14-40 14-56 0l-352-264c-18-12-24-34-18-54 6-18 26-32 46-32h32v-48c0-8 8-16 16-16h16v-224h-16c-8 0-16-8-16-16v-52c-10-6-16-16-16-28v-48h-32c-18 0-32-14-32-32v-64c0-18 14-32 32-32h736c18 0 32 14 32 32v58c88 32 142 122 126 214s-96 160-190 160zM602 192h-74v48c0 8-8 16-16 16h-16v224h16c8 0 16 8 16 16v48h80v-48c0-8 8-16 16-16h16v-98c-46-52-60-124-38-190zM272 256h-16v224h16c8 0 16 8 16 16v48h80v-48c0-8 8-16 16-16h16v-224h-16c-8 0-16-8-16-16v-48h-80v48c0 8-8 16-16 16zM512 688c0-36-28-64-64-64s-64 28-64 64c0 36 28 64 64 64s64-28 64-64zM464 256h-32v224h32zM400 512v32h96v-32zM160 544h96v-32h-96zM224 480v-224h-32v224zM672 412v68h32v-50c-12-4-22-10-32-18zM736 272c-26 0-48 22-48 48s22 48 48 48c26 0 48-22 48-48s-22-48-48-48zM836 332c6 6 16 6 24 0 6-8 6-18 0-24l-128-128c-6-6-16-6-24 0-6 8-6 18 0 24zM848 160c-26 0-48 22-48 48s22 48 48 48c26 0 48-22 48-48s-22-48-48-48zM736 512h-96v32h96zM144 160h474c10-18 24-34 40-48h-514zM816 16h-736v64h628c34-14 72-20 108-14z" />
<glyph unicode="&#xe021;" glyph-name="lock" d="M528 192c0-10-8-16-16-16s-16 6-16 16c0 8 8 16 16 16s16-8 16-16zM848 524v20h16c20 0 40 14 46 32 6 20 0 42-18 54l-352 264c-16 14-40 14-56 0l-352-264c-18-12-24-34-18-54 8-18 26-32 46-32h16v-20c-84-22-128-50-128-84 0-36 44-64 128-86v-290c0-44 36-80 80-80h512c44 0 80 36 80 80v290c84 22 128 50 128 86 0 34-44 62-128 84zM176 386c-76 22-96 42-96 54 0 10 20 32 96 52zM816 64c0-26-22-48-48-48h-512c-26 0-48 22-48 48v282c64-12 140-22 224-26v-32h-48c-8 0-16-8-16-16v-192c0-8 8-16 16-16h256c8 0 16 8 16 16v192c0 8-8 16-16 16h-48v32c84 4 160 14 224 26zM512 320c16 0 32 0 48 0v-32h-96v32c16 0 32 0 48 0zM466 352c8 18 26 32 46 32s38-14 46-32c-16 0-30 0-46 0s-30 0-46 0zM464 192c0 24 18 44 42 46 24 4 48-12 52-36 6-24-6-48-30-56v-18c0-10-8-16-16-16s-16 6-16 16v18c-20 6-32 24-32 46zM816 380c-64-14-142-24-226-28-8 38-40 64-78 64s-70-26-78-64c-84 4-162 14-226 28v164h608zM848 386v106c76-20 96-42 96-52 0-12-20-32-96-54z" />
<glyph unicode="&#xe022;" glyph-name="truck" d="M528 192c0-10-8-16-16-16s-16 6-16 16c0 8 8 16 16 16s16-8 16-16zM848 524v20h16c20 0 40 14 46 32 6 20 0 42-18 54l-352 264c-16 14-40 14-56 0l-352-264c-18-12-24-34-18-54 8-18 26-32 46-32h16v-20c-84-22-128-50-128-84 0-36 44-64 128-86v-290c0-44 36-80 80-80h512c44 0 80 36 80 80v290c84 22 128 50 128 86 0 34-44 62-128 84zM176 386c-76 22-96 42-96 54 0 10 20 32 96 52zM816 64c0-26-22-48-48-48h-512c-26 0-48 22-48 48v282c64-12 140-22 224-26v-32h-48c-8 0-16-8-16-16v-192c0-8 8-16 16-16h256c8 0 16 8 16 16v192c0 8-8 16-16 16h-48v32c84 4 160 14 224 26zM512 320c16 0 32 0 48 0v-32h-96v32c16 0 32 0 48 0zM466 352c8 18 26 32 46 32s38-14 46-32c-16 0-30 0-46 0s-30 0-46 0zM464 192c0 24 18 44 42 46 24 4 48-12 52-36 6-24-6-48-30-56v-18c0-10-8-16-16-16s-16 6-16 16v18c-20 6-32 24-32 46zM816 380c-64-14-142-24-226-28-8 38-40 64-78 64s-70-26-78-64c-84 4-162 14-226 28v164h608zM848 386v106c76-20 96-42 96-52 0-12-20-32-96-54z" />
<glyph unicode="&#xe023;" glyph-name="shopping-cart" d="M948 844l-112-114c-12-12-20-28-22-44l-16-94h-142v128c14 0 28 10 30 24 4 14-2 28-14 36l-200 120c-14 8-34 8-48 0l-200-120c-14-8-18-24-14-36 4-14 16-24 30-24v-128h-98c-24 0-46-10-62-30-14-18-22-42-16-66l38-192c8-38 40-64 78-64h564l-8-52v-2c-2-24-24-42-48-42h-528v-32h80c-24-34-20-80 10-108s78-28 108 0c30 28 34 74 10 108h176c-24-34-20-80 10-108s78-28 108 0c30 28 34 74 10 108h16c42 0 76 30 80 70l76 498c2 10 6 20 14 28l114 112zM624 496v-144c0-8-8-16-16-16s-16 8-16 16v144c0 8 8 16 16 16s16-8 16-16zM512 496v-144c0-8-8-16-16-16s-16 8-16 16v144c0 8 8 16 16 16s16-8 16-16zM400 496v-144c0-8-8-16-16-16s-16 8-16 16v144c0 8 8 16 16 16s16-8 16-16zM288 496v-144c0-8-8-16-16-16s-16 8-16 16v144c0 8 8 16 16 16s16-8 16-16zM272 720h352v-128h-80v48c0 18-16 32-34 32h-124c-18 0-34-14-34-32v-48h-80z" />
<glyph unicode="&#xe024;" glyph-name="home" d="M324 688h12v-224c0-26 22-48 48-48h320c26 0 48 22 48 48v224h12c12 0 22 8 26 20s0 24-10 32l-218 166c-10 8-26 8-36 0l-218-166c-10-8-14-20-10-32s14-20 26-20zM720 464c0-8-8-16-16-16h-80v112c0 18-14 32-32 32h-96c-18 0-32-14-32-32v-112h-80c-8 0-16 8-16 16v224h352zM950 480l-6 6c-18 18-46 20-64 4l-144-120v-66c0-26-22-48-48-48h-240c-8 0-16 8-16 16s8 16 16 16h240c8 0 16 8 16 16v50l-300 26c-28 4-54-8-70-28l-282-342c-6-6-6-16 2-22l266-4c6 0 10 2 14 8l106 168 264-16c4 0 8 2 12 6l236 264c16 20 16 48-2 66z" />
<glyph unicode="&#xe025;" glyph-name="real-estate" d="M434 444c-12 6-26 6-36-2l-174-92v34c80 12 144 96 144 200 0 110-72 200-160 200s-160-90-160-200c0-104 64-188 144-200v-50l-68-36c-14-12-16-32-6-46 6-8 16-12 26-12v0h16v-96h-16c-44 0-80-36-80-80v-48h-4c-8 0-16-8-16-16s8-16 16-16h142c2 0 758 0 758 0 8 0 16 8 16 16s-8 16-16 16h-16v48c0 44-36 80-80 80h-80v242c108 14 192 126 192 262 0 146-96 264-216 264s-216-118-216-264c0-142 92-258 208-264v-240h-80v96l16 2c18 0 32 14 32 32 0 10-4 18-12 24zM576 648c0 128 82 232 184 232s184-104 184-232c0-118-70-216-160-230v86l74 60c6 6 8 16 2 22s-16 8-22 2l-54-42v102l74 60c6 6 8 16 2 22s-16 8-22 2l-70-56-88 58c-6 4-16 2-22-6-4-6-2-16 6-22l88-58v-106l-72 48c-6 4-16 2-22-6-4-6-2-16 6-22l88-58v-88c-98 6-176 108-176 232zM80 584c0 92 58 168 128 168s128-76 128-168c0-86-48-156-112-166v88l60 58c6 6 6 18 0 24s-18 6-24 0l-36-38v52l60 58c6 6 6 18 0 24s-18 6-24 0l-52-54-52 54c-6 6-18 6-24 0s-6-18 0-24l60-58v-52l-36 38c-6 6-18 6-24 0s-6-18 0-24l60-58v-88c-64 10-112 80-112 166zM640 32c0-8-6-16-16-16h-112v144c0 18-14 32-32 32v0h-128c-18 0-32-14-32-32v0-144h-114c-8 2-14 8-14 16v208h448z" />
<glyph unicode="&#xe026;" glyph-name="renovation" d="M816 544c0 44-36 80-80 80h-96v112h6c12 0 22 8 24 18 4 10 0 22-8 28l-166 124c-10 8-22 8-32 0l-166-124c-8-6-12-18-8-28 2-10 12-18 24-18h6v-112h-96c-44 0-80-36-80-80v-48c0-44 36-80 80-80h512c44 0 80 36 80 80v16c26 0 48-22 48-48v-80c0-26-22-48-48-48h-240c-44 0-80-36-80-80v-16c-26 0-48-22-48-48v-160c0-26 22-48 48-48h32c26 0 48 22 48 48v160c0 26-22 48-48 48v16c0 26 22 48 48 48h240c44 0 80 36 80 80v80c0 44-36 80-80 80zM352 736h256v-112h-64v64c0 18-14 32-32 32h-64c-18 0-32-14-32-32v-64h-64zM512 688v-64h-64v64z" />
<glyph unicode="&#xe027;" glyph-name="for-sale" d="M892 630l-352 264c-16 14-40 14-56 0l-352-264c-18-12-24-34-18-54 8-18 26-32 46-32h16v-480c0-44 36-80 80-80h512c44 0 80 36 80 80v480h16c20 0 40 14 46 32 6 20 0 42-18 54zM816 64c0-26-22-48-48-48h-128v160c0 26-22 48-48 48h-160c-26 0-48-22-48-48v-160h-128c-26 0-48 22-48 48v480h608zM304 336c-8 0-16-8-16-16s8-16 16-16h64c8 0 16 8 16 16v64c0 8-8 16-16 16h-48v32h48c8 0 16 8 16 16s-8 16-16 16h-64c-8 0-16-8-16-16v-64c0-8 8-16 16-16h48v-32zM410 306c8-4 18 0 20 8l34 88 34-88c2-6 6-8 12-10 6 0 10 2 14 6s6 10 2 16l-48 128c-2 6-8 10-14 10s-12-4-14-10l-48-128c-4-8 0-18 8-20zM560 304h48c8 0 16 8 16 16s-8 16-16 16h-32v112c0 8-8 16-16 16s-16-8-16-16v-128c0-8 8-16 16-16zM656 304h64c8 0 16 8 16 16s-8 16-16 16h-48v32h48c8 0 16 8 16 16s-8 16-16 16h-48v32h48c8 0 16 8 16 16s-8 16-16 16h-64c-8 0-16-8-16-16v-128c0-8 8-16 16-16z" />
<glyph unicode="&#xe028;" glyph-name="lighting" d="M892 630l-352 264c-16 14-40 14-56 0l-352-264c-18-12-24-34-18-54 8-18 26-32 46-32h16v-480c0-44 36-80 80-80h512c44 0 80 36 80 80v480h16c20 0 40 14 46 32 6 20 0 42-18 54zM528 350c-10 2-22 2-32 0v50h32zM816 64c0-26-22-48-48-48h-512c-26 0-48 22-48 48v480h288v-112h-16c-8 0-16-8-16-16v-74c-48-24-72-76-62-126 12-52 58-88 110-88s98 36 110 88c10 50-14 102-62 126v74c0 8-8 16-16 16h-16v112h288zM336 272h-32c-8 0-16-8-16-16s8-16 16-16h32c8 0 16 8 16 16s-8 16-16 16zM688 240h32c8 0 16 8 16 16s-8 16-16 16h-32c-8 0-16-8-16-16s8-16 16-16zM376 370c4-4 10-6 16-6 6 2 10 6 12 12 0 6-2 12-6 16l-22 22c-6 6-16 6-22 0s-6-16 0-22zM648 142c-4 4-10 6-16 6-6-2-10-6-12-12 0-6 2-12 6-16l22-22c6-6 16-6 22 0s6 16 0 22zM376 142l-22-22c-6-6-6-16 0-22s16-6 22 0l22 22c4 4 6 10 6 16-2 6-6 10-12 12-6 0-12-2-16-6zM636 364c4 0 8 2 12 6l22 22c6 6 6 16 0 22s-16 6-22 0l-22-22c-6-4-6-12-4-18s8-10 14-10z" />
<glyph unicode="&#xe029;" glyph-name="finding" d="M892 630l-352 264c-16 14-40 14-56 0l-352-264c-18-12-24-34-18-54 8-18 26-32 46-32h16v-432c0-44 36-80 80-80h400c8 0 16 8 16 16s-8 16-16 16h-400c-26 0-48 22-48 48v432h608v-416c0-8 8-16 16-16s16 8 16 16v416h16c20 0 40 14 46 32 6 20 0 42-18 54zM688 212c-8 6-18 6-24 0l-10-10-22 22c60 72 52 178-18 242-68 64-176 62-242-6-68-66-70-174-6-242 64-70 170-78 242-18l22-22-10-10c-6-6-6-16 0-24l158-158c6-6 16-6 22 0l46 46c6 6 6 16 0 22zM496 448v-32c-44 0-80-36-80-80h-32c0 62 50 112 112 112z" />
<glyph unicode="&#xe02a;" glyph-name="scale-weight" d="M960 512h-160v240h112v32h-384v34c22 8 36 32 32 54-4 24-24 40-48 40s-44-16-48-40c-4-22 10-46 32-54v-34h-368v-32h96v-182l-166-124c-8-6-12-18-8-28 2-10 12-18 24-18h6v-168c0-22 18-40 40-40h240c22 0 40 18 40 40v168h6c12 0 22 8 24 18 4 10 0 22-8 28l-166 124v182h240v-640h-128c-6 0-10-2-14-8l-58-88h-104c-8 0-16-8-16-16s8-16 16-16h640c8 0 16 8 16 16s-8 16-16 16h-104l-58 88c-4 6-8 8-14 8h-128v640h240v-240h-144c-8 0-16-8-16-16v-288c0-8 8-16 16-16h336c8 0 16 8 16 16v288c0 8-8 16-16 16zM368 232c0-4-4-8-8-8h-56v80c0 18-14 32-32 32h-64c-18 0-32-14-32-32v-80h-56c-4 0-8 4-8 8v168h256zM884 480c14-42 42-56 60-62v-38c-42-14-56-42-62-60h-182c-14 42-42 56-60 62v38c42 14 56 42 62 60zM944 272h-304v16h304zM944 224h-304v16h304zM784 336c36 0 64 28 64 64s-28 64-64 64c-36 0-64-28-64-64s28-64 64-64z" />
<glyph unicode="&#xe02b;" glyph-name="dimensions" d="M160 544h16v-272c0-8 8-16 16-16s16 8 16 16v272h608v-272c0-8 8-16 16-16s16 8 16 16v272h16c20 0 40 14 46 32 6 20 0 42-18 54l-352 264c-16 14-40 14-56 0l-352-264c-18-12-24-34-18-54 8-18 26-32 46-32zM974 264c-4 8-14 10-22 6l-416-238c-2-2-6-2-8-4v468c0 8-8 16-16 16s-16-8-16-16v-468c-2 2-6 2-8 4l-416 238c-8 4-18 2-22-6s-2-18 6-22l416-238c24-14 56-14 80 0l416 238c8 4 10 14 6 22zM152 126c-6 4-16 2-22-6l-18-28-18 28c-4 6-10 8-16 8-4 0-10-4-12-8-2-6-2-12 0-16l26-40-26-40c-4-6-2-16 6-22 6-4 16-2 22 6l18 28 18-28c6-8 16-10 22-6 8 6 10 16 6 22l-26 40 26 40c4 6 2 16-6 22zM970 124c-8 6-18 4-22-2l-36-48-36 48c-4 6-14 8-22 2-6-4-8-14-2-22l44-60v-42c0-8 8-16 16-16s16 8 16 16v42l44 60c6 8 4 18-2 22zM578 248c2-4 8-8 14-8h80c8 0 16 8 16 16s-8 16-16 16h-48l62 86c2 6 2 12 0 18-2 4-8 8-14 8h-80c-8 0-16-8-16-16s8-16 16-16h48l-62-86c-2-6-2-12 0-18z" />
<glyph unicode="&#xe02c;" glyph-name="piggy-bank" d="M960 464c-8 0-16-8-16-16v-32c0-20-12-38-32-46v30c0 100-76 182-176 192v128h32c14 0 28 10 30 24 4 14-2 28-14 36l-200 120c-14 8-34 8-48 0l-200-120c-14-8-18-24-14-36 4-14 16-24 30-24h48v-128h-16v40c0 12-6 22-16 28-8 6-20 6-30 2-38-20-54-52-62-70-74-6-132-70-132-144 0-8-8-16-16-16h-32c-26 0-48-22-48-48v-112c0-26 22-48 48-48h36c8 0 14-6 16-12 6-36 34-116 140-116h16c8 0 16-8 16-16v-48c0-26 22-48 48-48h64c26 0 48 22 48 48v48c0 8 8 16 16 16h112c8 0 16-8 16-16v-48c0-26 22-48 48-48h64c26 0 48 22 48 48v52c0 8 4 14 12 16 32 8 60 32 84 68 20 32 32 70 32 104v66c38 8 64 40 64 78v32c0 8-8 16-16 16zM288 384c-26 0-48 22-48 48s22 48 48 48c26 0 48-22 48-48s-22-48-48-48zM654 360l-80-128c-6-8-14-10-22-6-8 6-10 14-6 22l32 50-46-10c-6 0-12 2-16 6s-6 10-4 16c2 4 8 8 12 10l76 14 26 42c6 8 14 10 22 6 8-6 10-14 6-22zM704 576v-68l-38-12c-4-2-8-6-10-12l-20-68-30 70c-2 6-6 8-10 10l-76 14-8 6v92h112v-96c0-8 8-16 16-16s16 8 16 16v96c0 18-14 32-32 32h-112c-18 0-32-14-32-32v-64l-48 40v136h272z" />
<glyph unicode="&#xe02d;" glyph-name="globe" d="M512 864c0 0 0 0 0 0s0 0 0 0 0 0 0 0c-230 0-416-186-416-416s186-416 416-416c0 0 0 0 0 0s0 0 0 0 0 0 0 0c230 0 416 186 416 416s-186 416-416 416zM528 614c44 2 88 8 130 18 12-50 20-106 20-168h-150zM528 648v180c46-12 92-72 120-164-38-10-78-14-120-16zM496 828v-180c-42 2-82 6-120 16 28 92 74 152 120 164zM496 614v-150h-152c2 62 10 120 22 168 42-10 86-16 130-18zM312 464h-182c4 86 36 164 86 226 38-20 76-36 118-50-14-52-22-112-22-176zM312 432c0-64 8-124 22-178-42-12-80-28-118-48-50 62-82 140-86 226zM344 432h152v-150c-44-2-88-8-130-18-12 48-20 106-22 168zM496 248v-180c-46 12-92 72-120 164 38 10 78 14 120 16zM528 68v180c42-2 82-6 120-16-28-92-74-152-120-164zM528 282v150h150c0-62-8-120-20-168-42 10-86 16-130 18zM712 432h182c-4-86-36-164-86-226-38 20-78 36-118 50 12 52 20 112 22 176zM712 464c-2 64-10 124-22 176 40 14 80 30 118 50 50-62 82-140 86-226h-182zM784 716c-32-18-68-32-104-44-20 64-46 114-78 148 70-16 134-54 182-104zM422 820c-32-34-60-84-78-146-38 10-72 24-104 42 48 50 112 86 182 104zM240 180c32 18 66 32 102 42 20-62 48-112 80-146-70 18-134 54-182 104zM602 76c32 34 58 84 78 148 38-12 72-26 106-44-50-50-114-88-184-104z" />
<glyph unicode="&#xe02e;" glyph-name="anchor" d="M548 814c0 10-4 18-10 26-8 6-16 10-26 10s-18-4-26-10c-6-8-10-16-10-26s4-18 10-26c8-8 16-10 26-10s18 2 26 10c6 8 10 16 10 26zM1024 284v-202c0-8-4-14-12-16-2-2-4-2-6-2-6 0-10 2-14 6l-52 52c-46-54-106-98-182-130-76-30-158-46-246-46s-170 16-246 46c-76 32-136 76-182 130l-52-52c-4-4-8-6-14-6-2 0-4 0-6 2-8 2-12 8-12 16v202c0 4 2 10 6 12 2 4 6 6 12 6h202c8 0 14-4 16-12 4-6 2-14-4-20l-56-56c24-36 62-64 108-88s98-40 154-48v370h-108c-10 0-20 4-26 10-8 8-12 16-12 26v74c0 10 4 18 12 26 6 6 16 10 26 10h108v94c-22 12-38 30-52 52s-20 48-20 74c0 40 14 74 42 104 30 28 64 42 104 42s74-14 104-42c28-30 42-64 42-104 0-26-6-52-20-74s-30-40-52-52v-94h108c10 0 20-4 26-10 8-8 12-16 12-26v-74c0-10-4-18-12-26-6-6-16-10-26-10h-108v-370c56 8 108 24 154 48s84 52 108 88l-56 56c-6 6-8 14-4 20 2 8 8 12 16 12h202c6 0 10-2 12-6 4-2 6-8 6-12z" />
<glyph unicode="&#xe02f;" glyph-name="link" d="M890 826c-102 102-268 102-370 0l-94-94c56 2 114-10 168-36l26 28c46 46 122 46 168 0s46-122 0-168l-134-134c-46-46-122-46-168 0-28 28-74 28-102 0s-28-74 0-102c102-102 270-102 372 0l134 134c102 104 102 270 0 372zM404 172c-48-46-122-46-168 0s-46 120 0 166l134 136c46 46 122 46 168 0 28-28 74-28 102 0s28 74 0 102c-102 102-270 102-372 0l-134-136c-102-102-102-268 0-370s268-102 372 0l92 94c-56-2-114 10-166 36z" />
<glyph unicode="&#xe030;" glyph-name="telephone" d="M950 764c-78 66-182 132-438 132s-360-66-438-132c-44-36-74-64-74-120v-68c0-36 28-64 64-64h128c36 0 64 30 64 64 0 36 6 64 36 104 30 38 92 88 220 86 128 2 190-48 220-86 32-40 38-70 38-104s28-64 64-64h128c36 0 62 28 62 64v68c0 56-30 84-74 120M512 320c-70 0-128-58-128-128s58-128 128-128c70 0 128 58 128 128s-58 128-128 128M736 512h-32v80c0 26-28 48-64 48s-64-22-64-48v-80h-128v80c0 26-28 48-64 48s-64-22-64-48v-80h-30c-22 0-42-10-54-28-48-74-172-270-172-356v-128c0-36 28-64 64-64h768c36 0 64 28 64 64v122c0 110-124 294-172 364-12 16-32 26-52 26M512 0c-106 0-192 86-192 192s86 192 192 192c106 0 192-86 192-192s-86-192-192-192" />
<glyph unicode="&#xe031;" glyph-name="cellphone" d="M640 960h-256c-142 0-256-114-256-256v-512c0-142 114-256 256-256h256c142 0 256 114 256 256v512c0 142-114 256-256 256zM512-2c-36 0-66 30-66 66s30 66 66 66c36 0 66-30 66-66s-30-66-66-66zM768 192h-512v512c0 70 58 128 128 128h256c70 0 128-58 128-128z" />
<glyph unicode="&#xe032;" glyph-name="skype" d="M956 346c18-40 28-80 28-122 0-72-26-136-78-188-50-54-112-80-184-80-42 0-82 12-122 34-36-6-62-8-82-8-124 0-230 44-318 134s-132 200-132 328c0 30 4 60 10 92-24 42-38 86-38 138 0 74 26 136 76 188 52 52 112 78 186 78 50 0 96-14 138-42 22 6 48 8 78 8 124 0 230-44 318-134 86-90 130-200 130-328 0-32-2-64-10-98M748 222c20 32 30 66 30 104 0 30-6 56-16 82-12 20-28 38-52 54s-50 28-78 38c-46 12-78 22-98 26-10 2-20 4-36 6-14 4-22 6-26 8-18 6-28 10-36 14-10 6-20 14-26 24-8 6-10 14-10 26 0 16 8 30 28 42 18 14 44 22 78 22s60-8 76-20c18-14 30-32 38-50 12-18 20-30 28-38 10-8 24-12 38-12 18 0 34 8 48 20 12 14 18 28 18 46 0 14-6 32-14 54-12 16-26 32-44 48s-44 28-76 40c-32 8-68 14-104 14-50 0-92-8-132-22-38-14-66-36-88-62-20-28-30-60-30-94 0-36 10-66 28-92 24-28 50-48 78-58 34-16 74-28 120-38 8 0 18-2 30-6 10-4 22-6 30-8s16-4 22-6c18-6 34-16 46-28 12-10 18-24 18-44 0-22-10-42-32-56-24-16-56-26-92-26-28 0-50 6-66 14-18 8-30 18-36 28-16 30-26 46-28 46-4 18-12 32-24 42-14 10-26 14-40 14-20 0-36-6-48-18s-18-26-18-44c0-26 10-54 28-84 18-26 42-48 74-66 44-24 98-36 162-36 54 0 100 8 142 26 40 18 70 42 90 70" />
<glyph unicode="&#xe033;" glyph-name="instagram" d="M778 448c0 18-2 34-6 52 0 0 180 0 180 0s0-354 0-354c0-38-12-70-40-98-26-26-58-40-96-40 0 0-608 0-608 0-38 0-70 14-96 40-28 28-40 60-40 98 0 0 0 354 0 354s178 0 178 0c-2-22-4-40-4-52 0-72 26-134 78-188 52-52 114-78 188-78 72 0 134 26 188 78 52 54 78 116 78 188M816 888c38 0 70-12 96-40 28-26 40-58 40-96 0 0 0-150 0-150s-222 0-222 0c-54 74-126 112-218 112-94 0-166-38-218-112 0 0-222 0-222 0s0 150 0 150c0 38 12 70 40 96 26 28 58 40 96 40 0 0 608 0 608 0M880 718c0 0 0 74 0 74 0 16-8 24-24 24 0 0-74 0-74 0-16 0-24-8-24-24 0 0 0-74 0-74 0-6 2-10 6-16 6-6 12-8 18-8 0 0 74 0 74 0 16 0 24 8 24 24M676 448c0-46-16-84-48-116s-70-48-116-48c-46 0-84 16-116 48s-48 70-48 116c0 46 16 86 48 116 32 32 70 48 116 48s84-16 116-48c32-30 48-70 48-116" />
<glyph unicode="&#xe034;" glyph-name="linkedin" d="M900 902h-786c-38 0-68-28-68-66v-788c0-38 30-68 68-68h786c38 0 68 30 68 68v788c0 38-30 66-68 66zM326 132h-140v416h140zM256 604v0c-48 0-78 32-78 72s32 72 78 72c48 0 78-32 78-72s-30-72-78-72zM828 132h-140v222c0 56-20 94-70 94-38 0-62-26-72-50-4-10-4-22-4-34v-232h-140c0 0 2 376 0 416h140v-60c18 28 52 70 126 70 90 0 160-60 160-188zM542 486c0 2 0 2 0 2v-2z" />
<glyph unicode="&#xe035;" glyph-name="org" d="M330 210v-36c0-6-2-10-6-14-4-2-8-4-14-4h-36c-4 0-8 2-12 4-4 4-6 8-6 14v36c0 6 2 10 6 14 4 2 8 4 12 4h36c6 0 10-2 14-4 4-4 6-8 6-14zM330 356v-36c0-4-2-10-6-12-4-4-8-6-14-6h-36c-4 0-8 2-12 6-4 2-6 8-6 12v36c0 6 2 10 6 14s8 4 12 4h36c6 0 10 0 14-4s6-8 6-14zM476 356v-36c0-4-2-10-6-12-4-4-8-6-12-6h-38c-4 0-8 2-12 6-4 2-6 8-6 12v36c0 6 2 10 6 14s8 4 12 4h38c4 0 8 0 12-4s6-8 6-14zM330 502v-36c0-4-2-8-6-12s-8-6-14-6h-36c-4 0-8 2-12 6s-6 8-6 12v36c0 6 2 10 6 14s8 6 12 6h36c6 0 10-2 14-6s6-8 6-14zM768 210v-36c0-6-2-10-6-14-4-2-8-4-12-4h-36c-6 0-10 2-14 4-4 4-6 8-6 14v36c0 6 2 10 6 14 4 2 8 4 14 4h36c4 0 8-2 12-4 4-4 6-8 6-14zM622 356v-36c0-4-2-10-6-12-4-4-8-6-12-6h-38c-4 0-8 2-12 6-4 2-6 8-6 12v36c0 6 2 10 6 14s8 4 12 4h38c4 0 8 0 12-4s6-8 6-14zM476 502v-36c0-4-2-8-6-12s-8-6-12-6h-38c-4 0-8 2-12 6s-6 8-6 12v36c0 6 2 10 6 14s8 6 12 6h38c4 0 8-2 12-6s6-8 6-14zM330 650v-38c0-4-2-8-6-12s-8-6-14-6h-36c-4 0-8 2-12 6s-6 8-6 12v38c0 4 2 8 6 12s8 6 12 6h36c6 0 10-2 14-6s6-8 6-12zM768 356v-36c0-4-2-10-6-12-4-4-8-6-12-6h-36c-6 0-10 2-14 6-4 2-6 8-6 12v36c0 6 2 10 6 14s8 4 14 4h36c4 0 8 0 12-4s6-8 6-14zM622 502v-36c0-4-2-8-6-12s-8-6-12-6h-38c-4 0-8 2-12 6s-6 8-6 12v36c0 6 2 10 6 14s8 6 12 6h38c4 0 8-2 12-6s6-8 6-14zM476 650v-38c0-4-2-8-6-12s-8-6-12-6h-38c-4 0-8 2-12 6s-6 8-6 12v38c0 4 2 8 6 12s8 6 12 6h38c4 0 8-2 12-6s6-8 6-12zM330 796v-38c0-4-2-8-6-12s-8-6-14-6h-36c-4 0-8 2-12 6s-6 8-6 12v38c0 4 2 8 6 12s8 6 12 6h36c6 0 10-2 14-6s6-8 6-12zM768 502v-36c0-4-2-8-6-12s-8-6-12-6h-36c-6 0-10 2-14 6s-6 8-6 12v36c0 6 2 10 6 14s8 6 14 6h36c4 0 8-2 12-6s6-8 6-14zM622 650v-38c0-4-2-8-6-12s-8-6-12-6h-38c-4 0-8 2-12 6s-6 8-6 12v38c0 4 2 8 6 12s8 6 12 6h38c4 0 8-2 12-6s6-8 6-12zM476 796v-38c0-4-2-8-6-12s-8-6-12-6h-38c-4 0-8 2-12 6s-6 8-6 12v38c0 4 2 8 6 12s8 6 12 6h38c4 0 8-2 12-6s6-8 6-12zM768 650v-38c0-4-2-8-6-12s-8-6-12-6h-36c-6 0-10 2-14 6s-6 8-6 12v38c0 4 2 8 6 12s8 6 14 6h36c4 0 8-2 12-6s6-8 6-12zM622 796v-38c0-4-2-8-6-12s-8-6-12-6h-38c-4 0-8 2-12 6s-6 8-6 12v38c0 4 2 8 6 12s8 6 12 6h38c4 0 8-2 12-6s6-8 6-12zM768 796v-38c0-4-2-8-6-12s-8-6-12-6h-36c-6 0-10 2-14 6s-6 8-6 12v38c0 4 2 8 6 12s8 6 14 6h36c4 0 8-2 12-6s6-8 6-12zM622 10h220v876h-660v-876h220v128c0 4 2 8 6 12s8 6 12 6h184c4 0 8-2 12-6s6-8 6-12zM914 924v-952c0-10-4-18-10-26-8-6-16-10-26-10h-732c-10 0-18 4-26 10-6 8-10 16-10 26v952c0 10 4 18 10 26 8 6 16 10 26 10h732c10 0 18-4 26-10 6-8 10-16 10-26z" />
<glyph unicode="&#xe036;" glyph-name="mail" d="M950 100v440c-12-14-24-26-38-38-102-78-184-144-244-194-20-16-36-28-48-38-12-8-28-18-48-28-22-8-42-14-60-14v0c-18 0-38 6-60 14-20 10-36 20-48 28-12 10-28 22-48 38-60 50-142 116-244 194-14 12-26 24-38 38v-440c0-4 0-8 4-12s8-6 14-6h840c6 0 10 2 14 6s4 8 4 12zM950 702v20l-2 8-2 4-6 6h-848c-6 0-10-2-14-4-4-4-4-8-4-14 0-64 28-118 84-162 72-58 150-118 228-182 2-2 10-6 20-16 12-10 20-16 26-22 8-4 16-10 26-18 10-6 20-12 28-16 10-2 18-4 26-4v0c8 0 16 2 26 4 8 4 18 10 28 16 10 8 18 14 26 18 6 6 14 12 26 22 10 10 18 14 20 16 78 64 156 124 228 182 22 16 40 38 58 66s26 52 26 76zM1024 722v-622c0-24-8-46-26-64s-40-26-66-26h-840c-26 0-48 8-66 26s-26 40-26 64v622c0 26 8 46 26 64s40 28 66 28h840c26 0 48-10 66-28s26-38 26-64z" />
<glyph unicode="&#xe900;" glyph-name="location-pin" d="M824.414 830.219c-83.688 83.695-194.961 129.781-313.313 129.781-118.359 0-229.633-46.094-313.32-129.781s-129.781-194.961-129.781-313.313c0-118.359 46.094-229.633 129.781-313.32l235.406-235.414c20.75-20.742 48.414-32.172 77.906-32.172 29.484 0 57.148 11.43 77.898 32.172l235.422 235.414c83.695 83.688 129.781 194.961 129.781 313.32 0 118.352-46.094 229.625-129.781 313.313zM781.992 246.016l-235.43-235.422c-9.406-9.406-22.008-14.594-35.469-14.594s-26.063 5.188-35.477 14.594l-235.406 235.422c-72.359 72.352-112.211 168.563-112.211 270.891s39.852 198.531 112.211 270.891c72.359 72.352 168.555 112.203 270.891 112.203 102.328 0 198.531-39.852 270.891-112.203 149.367-149.375 149.367-392.422 0-541.781zM511.102 675.437c-87.422 0-158.539-71.117-158.539-158.539 0-87.414 71.117-158.531 158.539-158.531 87.414 0 158.531 71.117 158.531 158.531 0 87.422-71.117 158.539-158.531 158.539zM511.102 418.367c-54.336 0-98.539 44.203-98.539 98.539 0 54.328 44.203 98.531 98.539 98.531 54.328 0 98.531-44.203 98.531-98.531 0-54.336-44.203-98.539-98.531-98.539z" />
<glyph unicode="&#xe901;" glyph-name="crosshairs" horiz-adv-x="878" d="M684 365.714h-62.286c-20 0-36.571 16.571-36.571 36.571v73.143c0 20 16.571 36.571 36.571 36.571h62.286c-24.571 82.286-89.714 147.429-172 172v-62.286c0-20-16.571-36.571-36.571-36.571h-73.143c-20 0-36.571 16.571-36.571 36.571v62.286c-82.286-24.571-147.429-89.714-172-172h62.286c20 0 36.571-16.571 36.571-36.571v-73.143c0-20-16.571-36.571-36.571-36.571h-62.286c24.571-82.286 89.714-147.429 172-172v62.286c0 20 16.571 36.571 36.571 36.571h73.143c20 0 36.571-16.571 36.571-36.571v-62.286c82.286 24.571 147.429 89.714 172 172zM877.714 475.428v-73.143c0-20-16.571-36.571-36.571-36.571h-81.714c-28-122.857-124.571-219.429-247.429-247.429v-81.714c0-20-16.571-36.571-36.571-36.571h-73.143c-20 0-36.571 16.571-36.571 36.571v81.714c-122.857 28-219.429 124.571-247.429 247.429h-81.714c-20 0-36.571 16.571-36.571 36.571v73.143c0 20 16.571 36.571 36.571 36.571h81.714c28 122.857 124.571 219.429 247.429 247.429v81.714c0 20 16.571 36.571 36.571 36.571h73.143c20 0 36.571-16.571 36.571-36.571v-81.714c122.857-28 219.429-124.571 247.429-247.429h81.714c20 0 36.571-16.571 36.571-36.571z" />
</font>
</defs>
</svg>
